<svg id="svg" version="1.1" width="400" height="400" viewBox="0 0 400 400" xmlns="http://www.w3.org/2000/svg" xmlns:xlink="http://www.w3.org/1999/xlink"><g id="svgg"><path id="path0" d="M110.667 41.067 C 110.520 41.213,110.400 56.575,110.400 75.205 L 110.400 109.076 109.558 109.838 C 108.746 110.573,107.512 110.604,74.858 110.706 C 43.727 110.804,40.960 110.867,40.500 111.483 C 39.875 112.320,39.765 166.529,40.384 168.159 L 40.769 169.170 74.820 169.285 L 108.871 169.400 109.635 170.344 C 110.829 171.818,110.829 228.182,109.635 229.656 L 108.871 230.600 74.821 230.713 L 40.770 230.826 40.385 231.839 C 39.765 233.471,39.874 287.679,40.500 288.514 C 40.959 289.127,43.789 289.191,74.858 289.291 C 107.478 289.396,108.747 289.428,109.556 290.160 C 110.395 290.919,110.396 290.957,110.498 324.960 L 110.600 359.000 139.200 359.095 C 154.930 359.148,168.030 359.044,168.312 358.864 C 168.721 358.603,168.820 351.773,168.807 324.736 L 168.790 290.933 169.637 290.167 C 170.879 289.043,228.730 288.959,229.850 290.079 C 230.478 290.707,230.532 293.322,230.565 324.479 C 230.584 343.026,230.746 358.425,230.924 358.700 C 231.407 359.447,288.737 359.430,289.024 358.683 C 289.133 358.399,289.262 343.015,289.311 324.497 C 289.395 292.779,289.441 290.787,290.114 290.114 C 290.787 289.442,292.798 289.394,324.681 289.293 C 348.971 289.217,358.687 289.060,359.075 288.738 C 359.767 288.164,359.676 231.916,358.982 231.222 C 358.699 230.938,347.755 230.801,324.918 230.795 C 292.498 230.787,291.238 230.759,290.336 230.029 L 289.400 229.271 289.400 200.000 L 289.400 170.729 290.344 169.965 C 291.257 169.225,292.404 169.200,325.030 169.200 C 357.980 169.200,358.782 169.182,359.186 168.426 C 359.835 167.213,359.752 112.358,359.100 111.480 C 358.639 110.859,355.939 110.798,324.714 110.703 C 292.798 110.606,290.787 110.558,290.114 109.886 C 289.441 109.213,289.395 107.218,289.307 75.491 C 289.255 56.967,289.126 41.584,289.019 41.306 C 288.736 40.569,231.401 40.563,230.924 41.300 C 230.746 41.575,230.584 56.974,230.565 75.521 C 230.533 106.684,230.479 109.293,229.851 109.921 C 228.734 111.037,170.879 110.958,169.642 109.838 L 168.800 109.076 168.800 75.181 C 168.800 44.642,168.737 41.262,168.167 41.043 C 167.300 40.710,111.000 40.734,110.667 41.067 M229.807 170.035 C 230.777 171.005,230.777 228.995,229.807 229.965 C 228.737 231.034,170.839 230.921,169.653 229.848 C 168.825 229.099,168.821 228.953,168.821 200.000 C 168.821 168.228,168.691 170.058,171.000 169.484 C 173.393 168.889,229.184 169.412,229.807 170.035 " stroke="none" fill="#fcfcfc" fill-rule="evenodd"></path><path id="path1" d="M108.896 39.598 L 107.592 40.393 107.605 74.268 C 107.615 101.251,107.514 108.208,107.109 108.465 C 106.829 108.642,91.606 108.791,73.280 108.794 C 37.213 108.801,37.915 108.759,37.396 110.907 C 37.277 111.398,37.229 124.840,37.290 140.778 L 37.400 169.755 38.632 170.475 C 39.792 171.152,41.829 171.195,72.972 171.205 C 94.627 171.211,106.343 171.355,106.840 171.621 C 107.785 172.127,108.058 227.382,107.120 228.320 C 106.754 228.686,98.724 228.800,73.420 228.801 C 42.594 228.801,40.099 228.852,38.800 229.501 L 37.400 230.200 37.297 259.716 L 37.195 289.231 38.179 290.216 L 39.164 291.200 67.682 291.251 C 83.367 291.278,98.386 291.260,101.058 291.210 C 103.730 291.160,106.295 291.240,106.758 291.387 L 107.600 291.654 107.600 325.633 L 107.600 359.612 108.900 360.404 C 110.708 361.507,169.076 361.666,170.171 360.572 C 171.214 359.529,171.224 359.190,171.108 329.200 L 170.995 300.200 170.897 329.700 C 170.802 358.600,170.784 359.216,170.000 360.000 C 168.052 361.948,108.394 361.067,108.402 359.090 C 108.575 318.106,108.250 292.250,107.552 291.552 C 106.828 290.828,105.554 290.800,73.244 290.800 C 41.874 290.800,39.634 290.754,38.847 290.100 C 38.116 289.491,37.526 248.909,37.987 230.910 C 38.030 229.232,38.689 229.200,73.580 229.200 C 106.267 229.200,106.813 229.187,107.600 228.400 C 108.657 227.343,108.879 173.208,107.832 171.776 C 107.280 171.021,106.341 170.995,73.532 170.800 C 38.937 170.595,38.014 170.550,37.993 169.086 C 37.689 147.335,38.068 110.561,38.601 110.027 C 39.159 109.469,42.960 109.388,73.090 109.293 C 102.839 109.200,107.034 109.112,107.629 108.574 C 108.247 108.015,108.552 81.320,108.402 40.910 C 108.396 39.252,109.363 39.200,139.880 39.206 C 170.736 39.213,169.891 39.156,170.661 41.280 C 171.017 42.262,171.147 42.384,171.170 41.754 C 171.186 41.289,170.827 40.434,170.371 39.854 L 169.542 38.800 139.871 38.801 C 110.966 38.803,110.166 38.824,108.896 39.598 M229.368 39.795 L 228.358 40.805 228.428 74.203 C 228.482 100.405,228.389 107.731,227.997 108.203 C 227.560 108.731,224.021 108.793,199.449 108.703 L 171.400 108.600 171.196 76.000 L 170.993 43.400 170.896 75.820 C 170.823 100.611,170.913 108.353,171.280 108.720 C 172.118 109.558,227.738 109.398,228.437 108.555 C 228.877 108.026,228.951 101.967,228.852 74.653 L 228.731 41.396 229.595 40.298 L 230.458 39.200 259.785 39.200 C 287.122 39.200,289.170 39.247,289.968 39.900 L 290.825 40.600 290.824 74.027 C 290.823 103.371,290.897 107.561,291.434 108.327 L 292.045 109.200 325.823 109.200 C 359.067 109.200,359.613 109.213,360.400 110.000 C 361.173 110.773,361.684 141.073,361.320 164.566 C 361.210 171.618,365.805 170.797,325.850 170.907 C 292.797 170.998,291.921 171.020,291.368 171.776 C 290.321 173.208,290.543 227.343,291.600 228.400 C 292.387 229.187,292.933 229.200,325.956 229.200 C 365.682 229.200,361.209 228.416,361.319 235.401 C 361.685 258.835,361.174 289.226,360.400 290.000 C 359.613 290.787,359.067 290.800,326.000 290.800 C 292.834 290.800,292.390 290.810,291.593 291.607 C 290.796 292.404,290.786 292.833,290.809 325.858 C 290.831 356.760,290.781 359.358,290.154 360.050 C 289.447 360.833,231.311 361.262,230.160 360.494 C 228.768 359.564,228.743 358.899,228.837 325.193 C 228.911 298.672,228.827 291.914,228.416 291.419 C 227.785 290.659,172.981 290.461,171.574 291.214 C 171.077 291.480,170.817 292.017,170.846 292.714 C 170.882 293.551,170.938 293.616,171.089 293.000 C 171.547 291.138,170.556 291.200,199.800 291.200 C 223.823 291.200,227.568 291.279,227.995 291.795 C 228.379 292.257,228.475 299.851,228.425 325.950 L 228.362 359.512 229.435 360.356 C 230.998 361.586,288.893 361.700,290.405 360.476 L 291.298 359.753 291.243 326.111 C 291.193 295.873,291.252 292.406,291.822 291.835 C 292.392 291.265,295.912 291.200,326.154 291.200 L 359.850 291.200 360.925 290.078 L 362.000 288.956 361.987 259.978 C 361.978 237.810,361.860 230.859,361.487 230.400 C 360.118 228.714,361.175 228.762,326.237 228.781 C 293.490 228.799,292.784 228.784,292.012 228.012 C 290.772 226.772,290.792 173.208,292.032 171.968 C 292.811 171.189,293.424 171.175,326.289 171.214 L 359.753 171.253 360.884 170.185 L 362.015 169.118 361.908 139.991 L 361.800 110.864 360.830 109.832 L 359.861 108.800 326.230 108.794 C 305.732 108.790,292.366 108.640,292.000 108.408 C 291.475 108.077,291.392 103.785,291.337 74.166 C 291.280 43.467,291.213 40.242,290.623 39.651 C 290.035 39.063,287.082 38.990,260.175 38.892 L 230.379 38.785 229.368 39.795 M171.300 171.065 C 170.451 171.408,170.582 228.631,171.433 228.957 C 172.809 229.485,227.412 229.225,228.148 228.687 C 229.234 227.893,229.234 172.107,228.148 171.313 C 227.449 170.802,172.546 170.562,171.300 171.065 M227.962 171.754 C 228.622 172.550,228.620 227.453,227.960 228.248 C 227.571 228.717,223.026 228.789,199.449 228.703 L 171.400 228.600 171.296 200.400 C 171.240 184.890,171.279 171.975,171.384 171.700 C 171.682 170.921,227.315 170.974,227.962 171.754 M170.920 297.200 C 170.920 298.410,170.995 298.905,171.087 298.300 C 171.178 297.695,171.178 296.705,171.087 296.100 C 170.995 295.495,170.920 295.990,170.920 297.200 " stroke="none" fill="#acacac" fill-rule="evenodd"></path><path id="path2" d="M0.000 200.000 L 0.000 400.000 200.000 400.000 L 400.000 400.000 400.000 200.000 L 400.000 0.000 200.000 0.000 L 0.000 0.000 0.000 200.000 M297.500 35.833 C 297.119 36.215,296.355 35.597,296.639 35.138 C 296.807 34.864,297.031 34.871,297.318 35.158 C 297.554 35.394,297.636 35.698,297.500 35.833 M170.695 39.133 C 171.454 39.809,171.601 40.348,171.604 42.470 C 171.605 43.861,171.650 59.187,171.704 76.527 L 171.800 108.054 199.600 108.040 L 227.400 108.026 227.719 106.313 C 227.894 105.371,227.949 103.520,227.840 102.200 C 227.471 97.716,227.613 41.122,227.996 40.408 C 229.138 38.273,228.012 38.344,260.126 38.379 C 294.346 38.417,291.574 38.082,292.096 42.240 C 292.259 43.538,292.349 45.050,292.297 45.600 C 292.180 46.830,292.169 97.009,292.285 98.400 C 292.331 98.950,292.270 101.210,292.149 103.422 C 291.884 108.283,292.200 108.826,294.830 108.038 C 295.713 107.774,296.802 107.674,297.250 107.816 C 297.697 107.958,311.962 108.102,328.948 108.137 L 359.832 108.200 361.089 109.200 C 362.886 110.631,362.778 108.681,362.811 140.280 L 362.840 169.344 361.120 170.871 C 359.619 172.203,359.222 172.367,358.000 172.157 C 353.480 171.381,298.200 171.951,298.072 172.775 C 297.905 173.853,297.550 173.816,296.214 172.578 C 295.171 171.612,293.626 171.490,292.300 172.271 C 291.781 172.576,291.973 173.707,292.677 174.485 C 293.313 175.187,293.311 175.304,292.657 176.412 C 292.013 177.502,291.965 179.468,292.024 202.415 L 292.089 227.240 292.944 227.785 C 293.874 228.379,356.325 228.473,358.400 227.884 C 359.209 227.655,359.729 227.892,361.120 229.128 L 362.840 230.656 362.813 260.028 L 362.787 289.400 361.299 290.654 L 359.812 291.909 326.240 291.940 C 307.775 291.958,292.528 292.113,292.358 292.286 C 291.970 292.679,291.967 347.829,292.354 354.400 C 292.546 357.647,291.818 360.160,290.412 361.106 L 289.023 362.039 263.412 362.031 C 249.325 362.027,237.440 362.017,237.000 362.008 C 236.560 362.000,235.030 361.974,233.600 361.950 C 228.719 361.870,225.811 358.602,227.169 354.724 C 227.503 353.769,227.623 346.148,227.599 327.400 C 227.582 313.100,227.679 299.960,227.817 298.200 C 227.954 296.440,227.915 294.308,227.728 293.462 L 227.390 291.924 199.839 291.938 C 183.523 291.946,172.138 292.102,171.919 292.321 C 171.325 292.915,171.704 296.200,172.367 296.200 C 173.282 296.200,173.319 297.108,172.424 297.587 C 171.603 298.027,171.600 298.133,171.600 329.032 L 171.600 360.036 170.700 360.932 L 169.800 361.828 140.589 361.948 L 111.378 362.069 109.085 361.055 L 106.792 360.041 106.829 326.187 C 106.850 307.567,106.776 292.243,106.666 292.133 C 106.556 292.023,91.556 291.942,73.333 291.954 C 39.518 291.975,38.009 291.912,37.225 290.447 C 37.012 290.049,36.817 277.122,36.763 259.821 L 36.670 229.884 38.143 229.129 C 39.551 228.406,41.061 228.373,72.638 228.362 C 90.800 228.356,105.913 228.255,106.221 228.136 C 106.695 227.955,106.781 223.611,106.775 200.166 C 106.767 167.855,107.490 171.478,101.103 171.749 C 98.846 171.845,86.110 171.904,72.800 171.880 C 37.122 171.817,40.038 171.896,38.238 170.945 L 36.677 170.119 36.750 140.179 C 36.830 107.012,36.628 109.334,39.506 108.479 C 40.552 108.169,50.887 108.047,73.943 108.073 L 106.885 108.111 106.824 74.041 L 106.763 39.971 108.770 39.086 L 110.777 38.200 140.283 38.263 C 169.256 38.325,169.806 38.341,170.695 39.133 M298.000 101.200 C 298.000 101.420,297.730 101.600,297.400 101.600 C 297.070 101.600,296.800 101.420,296.800 101.200 C 296.800 100.980,297.070 100.800,297.400 100.800 C 297.730 100.800,298.000 100.980,298.000 101.200 M100.000 103.000 C 100.000 103.622,99.773 104.000,99.400 104.000 C 98.800 104.000,98.563 102.770,99.067 102.267 C 99.611 101.723,100.000 102.029,100.000 103.000 M171.999 171.933 C 171.209 172.197,171.477 227.867,172.270 228.171 C 173.219 228.536,226.549 228.402,227.144 228.035 C 227.602 227.752,227.951 172.618,227.498 172.165 C 227.311 171.977,172.550 171.749,171.999 171.933 M298.400 226.613 C 298.400 227.370,297.435 227.777,296.500 227.414 C 295.885 227.175,295.922 227.074,296.800 226.585 C 298.099 225.862,298.400 225.867,298.400 226.613 M361.600 294.000 C 361.600 294.414,361.433 294.856,361.229 294.982 C 360.775 295.263,360.249 293.767,360.602 293.197 C 360.967 292.607,361.600 293.116,361.600 294.000 M297.600 364.613 C 297.600 365.251,296.537 365.870,296.133 365.467 C 296.006 365.339,296.008 364.957,296.138 364.617 C 296.445 363.818,297.600 363.814,297.600 364.613 " stroke="none" fill="#9c9c9c" fill-rule="evenodd"></path><path id="path3" d="M109.500 39.829 C 108.895 40.157,108.401 40.645,108.402 40.913 C 108.552 81.259,108.247 108.015,107.629 108.574 C 107.034 109.112,102.839 109.200,73.090 109.293 C 42.960 109.388,39.159 109.469,38.601 110.027 C 38.068 110.561,37.689 147.335,37.993 169.086 C 38.014 170.550,38.937 170.595,73.532 170.800 C 106.341 170.995,107.280 171.021,107.832 171.776 C 108.879 173.208,108.657 227.343,107.600 228.400 C 106.813 229.187,106.267 229.200,73.580 229.200 C 38.689 229.200,38.030 229.232,37.987 230.910 C 37.526 248.909,38.116 289.491,38.847 290.100 C 39.634 290.754,41.874 290.800,73.244 290.800 C 105.554 290.800,106.828 290.828,107.552 291.552 C 108.250 292.250,108.575 318.106,108.402 359.090 C 108.394 361.070,168.052 361.948,170.004 359.996 C 170.797 359.203,170.808 358.722,170.795 325.497 C 170.784 294.141,170.831 291.767,171.468 291.301 C 172.608 290.467,227.721 290.582,228.416 291.419 C 228.827 291.914,228.911 298.672,228.837 325.193 C 228.743 358.899,228.768 359.564,230.160 360.494 C 231.311 361.262,289.447 360.833,290.154 360.050 C 290.781 359.358,290.831 356.760,290.809 325.858 C 290.786 292.833,290.796 292.404,291.593 291.607 C 292.390 290.810,292.834 290.800,326.000 290.800 C 359.067 290.800,359.613 290.787,360.400 290.000 C 361.174 289.226,361.685 258.835,361.319 235.401 C 361.209 228.416,365.682 229.200,325.956 229.200 C 292.933 229.200,292.387 229.187,291.600 228.400 C 290.543 227.343,290.321 173.208,291.368 171.776 C 291.921 171.020,292.797 170.998,325.850 170.907 C 365.805 170.797,361.210 171.618,361.320 164.566 C 361.684 141.073,361.173 110.773,360.400 110.000 C 359.613 109.213,359.067 109.200,325.823 109.200 L 292.045 109.200 291.434 108.327 C 290.897 107.561,290.823 103.371,290.824 74.027 L 290.825 40.600 289.968 39.900 C 289.170 39.247,287.122 39.200,259.785 39.200 L 230.458 39.200 229.595 40.298 L 228.731 41.396 228.852 74.653 C 228.951 101.967,228.877 108.026,228.437 108.555 C 227.699 109.445,171.991 109.553,171.256 108.667 C 170.942 108.289,170.782 98.262,170.707 74.235 C 170.603 41.204,170.580 40.321,169.824 39.768 C 168.631 38.896,111.113 38.954,109.500 39.829 M168.939 40.749 C 169.544 41.252,169.600 44.144,169.600 75.020 C 169.600 105.144,169.667 108.810,170.229 109.371 C 171.186 110.329,228.414 110.329,229.371 109.371 C 229.933 108.810,230.000 105.141,230.000 74.994 L 230.000 41.245 230.889 40.623 C 232.238 39.678,287.762 39.678,289.111 40.623 L 290.000 41.245 290.000 75.143 C 290.000 100.974,290.114 109.154,290.480 109.520 C 290.846 109.886,299.025 110.000,324.851 110.000 C 355.128 110.000,358.810 110.067,359.371 110.629 C 360.329 111.586,360.329 168.414,359.371 169.371 C 358.810 169.933,355.142 170.000,325.000 170.000 C 294.858 170.000,291.190 170.067,290.629 170.629 C 289.860 171.397,289.653 227.805,290.414 229.226 C 290.818 229.982,291.619 230.000,324.525 230.000 C 354.376 230.000,358.323 230.071,359.111 230.623 L 360.000 231.245 360.000 260.209 C 360.000 288.434,359.980 289.182,359.226 289.586 C 358.711 289.862,347.204 290.000,324.706 290.000 C 298.993 290.000,290.846 290.114,290.480 290.480 C 290.114 290.846,289.999 299.016,289.994 324.780 C 289.990 345.389,289.840 358.834,289.609 359.200 C 289.024 360.126,232.344 360.317,230.942 359.399 L 230.000 358.782 230.000 325.019 C 230.000 294.860,229.933 291.190,229.371 290.629 C 228.414 289.671,171.186 289.671,170.229 290.629 C 169.667 291.190,169.600 294.856,169.600 324.980 C 169.600 355.856,169.544 358.748,168.939 359.251 C 167.880 360.130,111.874 360.272,110.542 359.399 L 109.600 358.782 109.600 325.040 C 109.600 294.146,109.544 291.252,108.939 290.749 C 108.394 290.297,102.292 290.165,74.306 290.000 C 41.262 289.805,40.320 289.779,39.768 289.024 C 39.290 288.370,39.200 283.776,39.200 260.105 L 39.200 231.964 40.182 230.982 L 41.164 230.000 74.493 230.000 C 104.011 230.000,107.924 229.929,108.711 229.377 L 109.600 228.755 109.600 200.000 L 109.600 171.245 108.711 170.623 C 107.924 170.071,104.011 170.000,74.493 170.000 L 41.164 170.000 40.182 169.018 L 39.200 168.036 39.200 139.895 C 39.200 116.224,39.290 111.630,39.768 110.976 C 40.321 110.220,41.206 110.197,74.246 110.091 C 104.957 109.993,108.225 109.921,108.878 109.329 C 109.563 108.709,109.600 106.949,109.600 74.961 L 109.600 41.245 110.500 40.614 C 111.763 39.727,167.865 39.857,168.939 40.749 M170.300 170.432 C 169.152 171.101,169.224 228.970,170.374 229.586 C 171.795 230.347,228.603 230.140,229.371 229.371 C 230.329 228.414,230.329 171.586,229.371 170.629 C 228.609 169.866,171.598 169.676,170.300 170.432 M228.148 171.313 C 229.234 172.107,229.234 227.893,228.148 228.687 C 227.412 229.225,172.809 229.485,171.433 228.957 C 170.582 228.631,170.451 171.408,171.300 171.065 C 172.546 170.562,227.449 170.802,228.148 171.313 " stroke="none" fill="#b4b4b4" fill-rule="evenodd"></path><path id="path4" d="M296.639 35.138 C 296.500 35.361,296.582 35.665,296.820 35.812 C 297.435 36.193,297.832 35.672,297.318 35.158 C 297.031 34.871,296.807 34.864,296.639 35.138 M108.770 39.086 L 106.763 39.971 106.824 74.041 L 106.885 108.111 73.943 108.073 C 50.887 108.047,40.552 108.169,39.506 108.479 C 36.628 109.334,36.830 107.012,36.750 140.179 L 36.677 170.119 38.238 170.945 C 40.038 171.896,37.122 171.817,72.800 171.880 C 86.110 171.904,98.846 171.845,101.103 171.749 C 107.490 171.478,106.767 167.855,106.775 200.166 C 106.781 223.611,106.695 227.955,106.221 228.136 C 105.913 228.255,90.800 228.356,72.638 228.362 C 41.061 228.373,39.551 228.406,38.143 229.129 L 36.670 229.884 36.763 259.821 C 36.817 277.122,37.012 290.049,37.225 290.447 C 38.009 291.912,39.518 291.975,73.333 291.954 C 91.556 291.942,106.556 292.023,106.666 292.133 C 106.776 292.243,106.850 307.567,106.829 326.187 L 106.792 360.041 109.085 361.055 L 111.378 362.069 140.589 361.948 L 169.800 361.828 170.700 360.932 L 171.600 360.036 171.600 329.032 C 171.600 298.133,171.603 298.027,172.424 297.587 C 173.319 297.108,173.282 296.200,172.367 296.200 C 171.704 296.200,171.325 292.915,171.919 292.321 C 172.138 292.102,183.523 291.946,199.839 291.938 L 227.390 291.924 227.728 293.462 C 227.915 294.308,227.954 296.440,227.817 298.200 C 227.679 299.960,227.582 313.100,227.599 327.400 C 227.623 346.148,227.503 353.769,227.169 354.724 C 225.811 358.602,228.719 361.870,233.600 361.950 C 235.030 361.974,236.560 362.000,237.000 362.008 C 237.440 362.017,249.325 362.027,263.412 362.031 L 289.023 362.039 290.412 361.106 C 291.818 360.160,292.546 357.647,292.354 354.400 C 291.967 347.829,291.970 292.679,292.358 292.286 C 292.528 292.113,307.775 291.958,326.240 291.940 L 359.812 291.909 361.299 290.654 L 362.787 289.400 362.813 260.028 L 362.840 230.656 361.120 229.128 C 359.729 227.892,359.209 227.655,358.400 227.884 C 356.325 228.473,293.874 228.379,292.944 227.785 L 292.089 227.240 292.024 202.415 C 291.965 179.468,292.013 177.502,292.657 176.412 C 293.311 175.304,293.313 175.187,292.677 174.485 C 291.973 173.707,291.781 172.576,292.300 172.271 C 293.626 171.490,295.171 171.612,296.214 172.578 C 297.550 173.816,297.905 173.853,298.072 172.775 C 298.200 171.951,353.480 171.381,358.000 172.157 C 359.222 172.367,359.619 172.203,361.120 170.871 L 362.840 169.344 362.811 140.280 C 362.778 108.681,362.886 110.631,361.089 109.200 L 359.832 108.200 328.948 108.137 C 311.962 108.102,297.697 107.958,297.250 107.816 C 296.802 107.674,295.713 107.774,294.830 108.038 C 292.200 108.826,291.884 108.283,292.149 103.422 C 292.270 101.210,292.331 98.950,292.285 98.400 C 292.169 97.009,292.180 46.830,292.297 45.600 C 292.349 45.050,292.259 43.538,292.096 42.240 C 291.574 38.082,294.346 38.417,260.126 38.379 C 228.012 38.344,229.138 38.273,227.996 40.408 C 227.613 41.122,227.471 97.716,227.840 102.200 C 227.949 103.520,227.894 105.371,227.719 106.313 L 227.400 108.026 199.600 108.040 L 171.800 108.054 171.704 76.527 C 171.650 59.187,171.605 43.861,171.604 42.470 C 171.597 37.942,174.534 38.337,140.283 38.263 L 110.777 38.200 108.770 39.086 M170.354 39.832 C 171.155 40.850,171.166 41.325,171.191 74.483 C 171.205 92.974,171.313 108.259,171.432 108.451 C 171.852 109.131,227.432 108.884,228.000 108.201 C 228.389 107.732,228.482 100.326,228.428 74.203 L 228.358 40.805 229.368 39.795 L 230.379 38.785 260.175 38.892 C 287.082 38.990,290.035 39.063,290.623 39.651 C 291.213 40.242,291.280 43.467,291.337 74.166 C 291.392 103.785,291.475 108.077,292.000 108.408 C 292.366 108.640,305.732 108.790,326.230 108.794 L 359.861 108.800 360.830 109.832 L 361.800 110.864 361.908 139.991 L 362.015 169.118 360.884 170.185 L 359.753 171.253 326.289 171.214 C 293.424 171.175,292.811 171.189,292.032 171.968 C 290.792 173.208,290.772 226.772,292.012 228.012 C 292.784 228.784,293.490 228.799,326.237 228.781 C 361.175 228.762,360.118 228.714,361.487 230.400 C 361.860 230.859,361.978 237.810,361.987 259.978 L 362.000 288.956 360.925 290.078 L 359.850 291.200 326.154 291.200 C 295.912 291.200,292.392 291.265,291.822 291.835 C 291.252 292.406,291.193 295.873,291.243 326.111 L 291.298 359.753 290.405 360.476 C 288.893 361.700,230.998 361.586,229.435 360.356 L 228.362 359.512 228.425 325.950 C 228.475 299.851,228.379 292.257,227.995 291.795 C 227.258 290.905,172.351 290.895,171.613 291.784 C 171.241 292.232,171.140 300.092,171.180 325.581 C 171.232 359.176,171.201 359.985,169.840 360.894 C 168.642 361.694,110.246 361.225,108.900 360.404 L 107.600 359.612 107.600 325.633 L 107.600 291.654 106.758 291.387 C 106.295 291.240,103.730 291.160,101.058 291.210 C 98.386 291.260,83.367 291.278,67.682 291.251 L 39.164 291.200 38.179 290.216 L 37.195 289.231 37.297 259.716 L 37.400 230.200 38.800 229.501 C 40.099 228.852,42.594 228.801,73.420 228.801 C 98.724 228.800,106.754 228.686,107.120 228.320 C 108.058 227.382,107.785 172.127,106.840 171.621 C 106.343 171.355,94.627 171.211,72.972 171.205 C 41.829 171.195,39.792 171.152,38.632 170.475 L 37.400 169.755 37.290 140.778 C 37.229 124.840,37.277 111.398,37.396 110.907 C 37.915 108.759,37.213 108.801,73.280 108.794 C 91.606 108.791,106.829 108.642,107.109 108.465 C 107.514 108.208,107.615 101.251,107.605 74.268 L 107.592 40.393 108.896 39.598 C 110.166 38.824,110.966 38.803,139.871 38.801 L 169.542 38.800 170.354 39.832 M296.800 101.200 C 296.800 101.420,297.070 101.600,297.400 101.600 C 297.730 101.600,298.000 101.420,298.000 101.200 C 298.000 100.980,297.730 100.800,297.400 100.800 C 297.070 100.800,296.800 100.980,296.800 101.200 M99.067 102.267 C 98.563 102.770,98.800 104.000,99.400 104.000 C 99.773 104.000,100.000 103.622,100.000 103.000 C 100.000 102.029,99.611 101.723,99.067 102.267 M171.384 171.700 C 171.279 171.975,171.240 184.890,171.296 200.400 L 171.400 228.600 199.449 228.703 C 223.026 228.789,227.571 228.717,227.960 228.248 C 228.620 227.453,228.622 172.550,227.962 171.754 C 227.315 170.974,171.682 170.921,171.384 171.700 M227.498 172.165 C 227.951 172.618,227.602 227.752,227.144 228.035 C 226.549 228.402,173.219 228.536,172.270 228.171 C 171.477 227.867,171.209 172.197,171.999 171.933 C 172.550 171.749,227.311 171.977,227.498 172.165 M296.800 226.585 C 295.922 227.074,295.885 227.175,296.500 227.414 C 297.435 227.777,298.400 227.370,298.400 226.613 C 298.400 225.867,298.099 225.862,296.800 226.585 M360.602 293.197 C 360.249 293.767,360.775 295.263,361.229 294.982 C 361.710 294.685,361.709 293.315,361.228 293.017 C 361.023 292.891,360.741 292.971,360.602 293.197 M296.138 364.617 C 296.008 364.957,296.006 365.339,296.133 365.467 C 296.537 365.870,297.600 365.251,297.600 364.613 C 297.600 363.814,296.445 363.818,296.138 364.617 " stroke="none" fill="#a4a4a4" fill-rule="evenodd"></path><path id="path5" d="" stroke="none" fill="#949494" fill-rule="evenodd"></path><path id="path6" d="" stroke="none" fill="#e8100c8" fill-rule="evenodd"></path></g></svg>