<svg id="svg" version="1.1" width="400" height="401.7857142857143" viewBox="0 0 400 401.7857142857143" xmlns="http://www.w3.org/2000/svg" xmlns:xlink="http://www.w3.org/1999/xlink"><g id="svgg"><path id="path0" d="M199.504 7.363 C 198.680 7.824,196.729 9.100,195.167 10.200 C 193.606 11.300,191.849 12.453,191.264 12.762 C 190.679 13.071,190.110 13.437,190.000 13.577 C 189.693 13.966,184.279 17.812,183.600 18.124 C 183.270 18.276,182.190 19.031,181.200 19.803 C 180.210 20.575,178.905 21.403,178.300 21.643 C 177.695 21.882,177.200 22.207,177.200 22.365 C 177.200 22.523,176.615 22.957,175.900 23.329 C 175.185 23.701,173.250 24.995,171.600 26.204 C 169.950 27.413,168.060 28.697,167.400 29.057 C 166.740 29.417,166.110 29.843,166.000 30.003 C 165.813 30.274,164.456 31.197,158.843 34.867 C 157.610 35.674,156.420 36.489,156.200 36.679 C 155.980 36.869,154.990 37.574,154.000 38.247 C 153.010 38.920,151.429 39.995,150.487 40.635 C 149.545 41.276,148.075 42.250,147.221 42.800 C 145.572 43.861,141.970 46.320,136.400 50.187 C 132.704 52.752,131.915 53.284,129.200 55.037 C 128.210 55.677,127.220 56.337,127.000 56.505 C 126.780 56.672,125.900 57.347,125.045 58.005 C 124.190 58.662,123.348 59.200,123.174 59.200 C 123.000 59.200,122.619 59.432,122.329 59.716 C 122.038 59.999,119.460 61.799,116.600 63.716 C 113.740 65.632,109.600 68.456,107.400 69.992 C 105.200 71.528,102.860 73.085,102.200 73.451 C 101.540 73.818,100.261 74.722,99.359 75.459 C 98.456 76.197,97.610 76.800,97.478 76.800 C 97.346 76.800,95.655 77.890,93.719 79.222 C 91.784 80.553,88.580 82.699,86.600 83.989 C 84.620 85.279,82.715 86.619,82.366 86.967 C 82.018 87.315,81.615 87.600,81.471 87.600 C 81.327 87.600,80.172 88.384,78.904 89.341 C 77.637 90.299,76.420 91.154,76.200 91.241 C 75.508 91.516,69.836 95.349,69.025 96.091 C 68.598 96.481,68.116 96.800,67.953 96.800 C 67.790 96.800,67.419 97.030,67.129 97.310 C 66.706 97.718,60.690 101.829,54.997 105.600 C 54.499 105.930,52.800 107.100,51.223 108.200 C 49.645 109.300,47.780 110.535,47.077 110.945 C 46.375 111.355,45.710 111.806,45.600 111.947 C 45.278 112.361,42.475 114.400,42.228 114.400 C 42.103 114.400,41.069 115.075,39.929 115.900 C 38.789 116.725,37.269 117.760,36.553 118.200 C 35.836 118.640,33.428 120.260,31.200 121.800 C 28.973 123.340,26.726 124.870,26.207 125.200 C 25.687 125.530,22.911 127.420,20.037 129.400 C 17.162 131.380,13.711 133.720,12.367 134.600 C 11.024 135.480,8.726 137.108,7.262 138.217 L 4.600 140.235 4.498 268.617 C 4.402 388.967,4.438 397.031,5.074 397.500 C 5.614 397.898,37.728 398.000,162.486 398.000 L 319.220 398.000 319.589 397.030 C 320.017 395.904,320.169 201.450,319.750 191.112 L 319.479 184.425 318.039 183.482 C 316.559 182.513,312.565 179.864,310.978 178.800 C 304.724 174.606,301.759 172.555,301.565 172.287 C 301.436 172.109,300.776 171.656,300.099 171.281 C 298.751 170.536,294.603 167.799,293.863 167.168 C 293.608 166.950,292.383 166.103,291.141 165.286 C 289.898 164.469,287.052 162.540,284.816 161.000 C 282.580 159.460,280.338 157.930,279.835 157.600 C 279.331 157.270,278.397 156.659,277.760 156.243 C 276.479 155.406,276.169 155.196,270.834 151.540 C 268.795 150.143,266.707 148.730,266.193 148.400 C 265.679 148.070,263.432 146.540,261.200 145.000 C 258.967 143.460,256.139 141.532,254.916 140.715 C 253.692 139.898,252.310 138.951,251.845 138.610 C 251.380 138.268,249.507 137.002,247.683 135.795 C 245.859 134.588,244.149 133.415,243.883 133.189 C 243.447 132.818,239.893 130.431,233.650 126.317 C 232.412 125.502,230.500 124.186,229.400 123.393 C 228.300 122.600,225.953 121.017,224.185 119.876 C 222.417 118.734,220.077 117.118,218.985 116.284 C 217.893 115.450,214.930 113.395,212.400 111.717 C 209.870 110.039,206.810 108.002,205.600 107.191 C 204.390 106.380,202.841 105.429,202.159 105.078 L 200.918 104.440 196.759 107.221 C 194.471 108.750,191.364 110.856,189.854 111.901 C 188.343 112.945,186.633 114.110,186.054 114.490 C 184.632 115.420,184.238 115.695,181.011 118.004 C 179.477 119.102,178.052 120.000,177.845 120.000 C 177.637 120.000,177.182 120.272,176.834 120.605 C 176.485 120.938,175.214 121.869,174.009 122.675 C 172.804 123.480,171.634 124.294,171.409 124.484 C 171.184 124.674,169.853 125.588,168.452 126.515 C 167.050 127.442,165.160 128.692,164.252 129.294 C 163.343 129.895,162.344 130.511,162.031 130.663 C 161.717 130.815,161.177 131.189,160.831 131.496 C 159.759 132.442,157.436 133.990,156.700 134.248 C 156.315 134.383,156.000 134.648,156.000 134.836 C 156.000 135.025,155.415 135.479,154.700 135.846 C 153.985 136.212,153.310 136.627,153.200 136.769 C 153.090 136.910,152.010 137.642,150.800 138.395 C 149.590 139.147,148.150 140.096,147.600 140.503 C 147.050 140.910,145.945 141.728,145.145 142.321 C 143.303 143.687,142.704 144.091,140.000 145.786 C 138.790 146.545,137.603 147.334,137.362 147.540 C 137.122 147.746,136.357 148.209,135.662 148.568 C 134.968 148.927,134.400 149.384,134.400 149.583 C 134.400 149.783,133.996 150.074,133.502 150.231 C 133.007 150.388,132.422 150.727,132.202 150.984 C 131.981 151.241,130.180 152.515,128.200 153.816 C 126.220 155.117,124.347 156.425,124.038 156.724 C 123.729 157.023,123.099 157.430,122.638 157.630 C 122.177 157.830,120.540 158.896,119.000 160.000 C 114.997 162.868,106.799 168.400,106.552 168.400 C 106.437 168.400,106.096 168.625,105.795 168.900 C 105.237 169.410,103.850 170.390,101.000 172.288 C 97.122 174.870,90.782 179.185,88.323 180.916 C 86.851 181.952,85.534 182.800,85.396 182.800 C 85.259 182.800,84.529 183.271,83.773 183.847 L 82.400 184.895 82.400 252.824 C 82.400 298.347,82.534 320.836,82.806 321.004 C 83.376 321.356,120.166 321.392,120.734 321.041 C 121.085 320.824,121.200 306.606,121.200 263.421 C 121.200 199.260,120.908 205.391,124.059 203.483 C 125.862 202.392,130.454 199.353,131.010 198.883 C 131.236 198.692,131.956 198.193,132.610 197.773 C 133.265 197.354,134.038 196.783,134.328 196.505 C 134.619 196.228,135.695 195.509,136.720 194.908 C 137.745 194.308,138.857 193.572,139.192 193.274 C 139.874 192.667,144.490 189.615,145.649 189.005 C 146.062 188.788,146.400 188.477,146.400 188.313 C 146.400 188.150,147.144 187.608,148.054 187.108 C 150.362 185.841,150.818 185.550,152.444 184.300 C 153.231 183.695,154.075 183.200,154.318 183.200 C 154.561 183.200,154.904 182.975,155.080 182.699 C 155.380 182.230,156.275 181.597,163.400 176.816 C 164.940 175.782,167.235 174.231,168.501 173.368 C 169.766 172.506,171.116 171.620,171.501 171.400 C 171.885 171.180,173.190 170.264,174.400 169.363 C 175.610 168.463,178.040 166.805,179.800 165.678 C 183.993 162.993,187.586 160.539,189.917 158.770 C 190.952 157.983,192.279 157.083,192.864 156.770 C 193.449 156.456,195.460 155.158,197.332 153.884 C 200.693 151.598,202.381 151.188,203.218 152.453 C 203.418 152.755,206.705 155.021,212.649 158.956 C 215.590 160.902,218.476 162.876,219.000 163.299 C 219.361 163.591,222.974 166.006,229.150 170.086 C 230.388 170.903,231.611 171.752,231.868 171.972 C 232.571 172.573,239.465 177.289,240.925 178.168 C 241.626 178.590,242.920 179.496,243.800 180.181 C 244.680 180.866,245.850 181.643,246.400 181.908 C 247.238 182.311,251.633 185.242,253.000 186.309 C 253.732 186.881,256.174 188.594,256.835 189.000 C 257.193 189.220,258.257 189.940,259.200 190.600 C 260.143 191.260,261.204 191.983,261.557 192.206 C 263.149 193.212,265.843 195.035,266.276 195.399 C 267.039 196.041,269.229 197.536,271.570 199.011 C 272.763 199.763,273.843 200.520,273.970 200.693 C 274.096 200.866,274.910 201.366,275.777 201.804 C 276.644 202.242,278.219 203.422,279.277 204.426 L 281.200 206.253 281.200 282.312 C 281.200 357.101,281.187 358.379,280.426 358.786 C 279.260 359.410,45.590 359.361,44.219 358.736 L 43.200 358.272 43.200 260.057 L 43.200 161.843 44.254 160.322 C 44.834 159.485,45.482 158.800,45.693 158.800 C 45.904 158.800,46.641 158.395,47.330 157.900 C 48.019 157.405,48.878 156.820,49.239 156.600 C 50.367 155.911,52.158 154.667,53.244 153.817 C 53.819 153.368,54.629 152.775,55.044 152.499 C 55.460 152.223,56.880 151.283,58.200 150.410 C 59.520 149.537,61.320 148.281,62.200 147.620 C 63.080 146.958,64.160 146.239,64.600 146.021 C 65.040 145.803,66.120 145.082,67.000 144.419 C 67.880 143.756,69.050 142.989,69.600 142.715 C 70.150 142.441,70.696 142.085,70.813 141.925 C 70.930 141.765,72.550 140.606,74.413 139.350 C 76.276 138.093,78.880 136.331,80.200 135.435 C 81.520 134.539,82.889 133.624,83.243 133.403 C 83.596 133.181,84.660 132.460,85.607 131.800 C 86.553 131.140,87.738 130.330,88.239 130.000 C 88.740 129.670,90.917 128.186,93.075 126.702 C 101.665 120.796,108.750 115.969,109.662 115.400 C 110.515 114.867,117.403 110.167,121.400 107.390 C 123.160 106.167,125.005 104.998,125.500 104.793 C 125.995 104.588,126.400 104.247,126.400 104.037 C 126.400 103.826,126.739 103.546,127.152 103.415 C 127.566 103.284,128.282 102.867,128.742 102.488 C 129.924 101.517,131.705 100.284,135.450 97.843 C 137.237 96.678,138.947 95.515,139.250 95.258 C 139.552 95.001,140.970 94.019,142.400 93.076 C 143.830 92.132,147.022 89.974,149.494 88.280 C 151.966 86.586,154.156 85.200,154.361 85.200 C 154.566 85.200,154.793 85.063,154.867 84.895 C 155.067 84.436,159.142 81.600,159.601 81.600 C 159.820 81.600,160.000 81.432,160.000 81.227 C 160.000 81.022,160.315 80.753,160.700 80.629 C 161.085 80.506,161.923 79.954,162.562 79.402 C 163.201 78.851,163.845 78.400,163.992 78.400 C 164.140 78.400,165.273 77.635,166.510 76.700 C 167.748 75.765,169.804 74.328,171.080 73.507 C 174.436 71.347,180.531 67.278,181.010 66.878 C 181.236 66.690,181.956 66.192,182.610 65.771 C 184.003 64.876,184.196 64.735,185.858 63.406 C 186.550 62.853,187.291 62.400,187.505 62.400 C 187.720 62.400,188.774 61.713,189.848 60.873 C 190.921 60.033,192.364 58.998,193.053 58.573 C 193.742 58.148,195.722 56.855,197.453 55.701 C 201.593 52.940,200.682 52.759,208.006 57.800 C 209.604 58.900,211.311 60.070,211.800 60.400 C 212.289 60.730,213.993 61.900,215.587 63.000 C 217.181 64.100,219.052 65.346,219.743 65.768 C 220.434 66.190,221.750 67.135,222.667 67.868 C 223.584 68.601,224.436 69.200,224.560 69.200 C 224.835 69.200,228.423 71.553,230.600 73.162 C 231.480 73.812,233.010 74.831,234.000 75.426 C 234.990 76.021,236.198 76.869,236.685 77.310 C 237.172 77.751,237.914 78.311,238.334 78.556 C 239.717 79.360,244.163 82.320,246.200 83.791 C 247.300 84.586,249.347 85.993,250.750 86.918 C 252.152 87.843,254.312 89.275,255.550 90.100 C 256.787 90.925,258.340 91.956,259.000 92.390 C 261.028 93.726,261.639 94.160,263.100 95.300 C 263.876 95.905,264.638 96.400,264.794 96.400 C 264.950 96.400,265.460 96.715,265.928 97.100 C 266.396 97.485,267.369 98.208,268.090 98.707 C 268.810 99.205,270.300 100.238,271.400 101.001 C 272.500 101.764,273.940 102.688,274.600 103.053 C 275.260 103.419,276.520 104.299,277.400 105.009 C 278.280 105.719,279.613 106.612,280.362 106.993 C 281.112 107.374,281.922 107.843,282.162 108.037 C 284.617 110.008,285.153 110.400,285.395 110.400 C 285.549 110.400,286.693 111.168,287.938 112.107 C 289.182 113.045,291.190 114.437,292.400 115.200 C 294.815 116.723,294.846 116.745,296.658 118.194 C 297.350 118.747,298.047 119.200,298.209 119.200 C 298.370 119.200,299.694 120.058,301.151 121.107 C 305.142 123.981,306.346 124.800,306.579 124.800 C 306.696 124.800,307.828 125.582,309.096 126.537 C 310.363 127.493,312.210 128.762,313.200 129.358 C 314.190 129.954,315.810 131.061,316.800 131.819 C 317.790 132.577,318.960 133.361,319.400 133.562 C 319.840 133.763,321.190 134.656,322.400 135.547 C 325.170 137.586,330.191 141.014,335.364 144.400 C 337.879 146.046,338.633 146.580,339.000 146.972 C 339.220 147.208,340.570 148.108,342.000 148.973 C 343.430 149.838,344.690 150.652,344.800 150.782 C 344.985 151.000,345.942 151.678,348.216 153.200 C 354.712 157.549,357.163 159.301,358.000 160.196 L 359.000 161.264 359.200 279.532 L 359.400 397.800 378.374 397.904 C 393.288 397.986,397.416 397.900,397.668 397.504 C 398.032 396.931,398.127 142.734,397.764 140.920 C 397.578 139.991,396.832 139.278,394.264 137.573 C 392.469 136.382,390.820 135.270,390.600 135.103 C 388.603 133.585,384.791 130.905,383.929 130.412 C 382.336 129.502,375.492 124.914,374.800 124.292 C 374.164 123.721,370.033 120.898,368.761 120.164 C 368.346 119.925,367.689 119.457,367.303 119.125 C 366.916 118.793,366.278 118.407,365.885 118.268 C 365.492 118.128,364.232 117.278,363.085 116.379 C 361.938 115.480,359.311 113.632,357.247 112.272 C 355.184 110.912,352.394 109.033,351.047 108.096 C 349.701 107.158,348.150 106.082,347.600 105.705 C 347.050 105.328,346.456 104.790,346.280 104.510 C 346.104 104.229,345.741 104.000,345.474 104.000 C 345.206 104.000,343.550 103.007,341.794 101.792 C 340.037 100.578,335.270 97.350,331.200 94.619 C 327.130 91.888,323.440 89.368,323.000 89.018 C 322.560 88.669,321.120 87.671,319.800 86.801 C 318.480 85.931,316.140 84.321,314.600 83.222 C 313.060 82.123,311.215 80.916,310.500 80.538 C 309.785 80.161,309.200 79.727,309.200 79.574 C 309.200 79.422,308.660 79.073,308.000 78.800 C 307.340 78.527,306.800 78.157,306.800 77.978 C 306.800 77.800,306.456 77.545,306.035 77.411 C 305.614 77.278,304.579 76.635,303.735 75.983 C 302.891 75.331,301.848 74.528,301.419 74.199 C 300.989 73.869,300.438 73.600,300.193 73.600 C 299.949 73.600,299.232 73.060,298.600 72.400 C 297.968 71.740,297.296 71.200,297.108 71.200 C 296.920 71.200,296.549 71.013,296.283 70.785 C 295.871 70.432,293.455 68.807,289.764 66.400 C 287.603 64.991,283.768 62.390,283.390 62.076 C 283.164 61.889,282.444 61.394,281.790 60.977 C 281.135 60.560,280.510 60.120,280.400 60.000 C 280.290 59.880,279.678 59.426,279.040 58.991 C 276.462 57.232,276.073 56.970,274.960 56.229 C 274.322 55.805,272.360 54.501,270.600 53.332 C 268.840 52.162,265.261 49.764,262.646 48.002 C 260.031 46.241,257.779 44.800,257.642 44.800 C 257.505 44.800,257.168 44.440,256.893 44.000 C 256.618 43.560,256.149 43.200,255.852 43.200 C 255.554 43.200,254.676 42.705,253.900 42.100 C 252.309 40.858,251.823 40.522,248.982 38.697 C 247.872 37.984,246.702 37.168,246.382 36.885 C 245.873 36.435,241.876 33.733,240.045 32.601 C 239.690 32.382,238.860 31.825,238.200 31.365 C 232.622 27.473,231.023 26.374,228.400 24.627 C 226.750 23.528,225.174 22.409,224.898 22.141 C 224.621 21.872,224.036 21.538,223.598 21.399 C 223.159 21.260,222.800 21.000,222.800 20.822 C 222.800 20.643,222.260 20.273,221.600 20.000 C 220.940 19.727,220.400 19.384,220.400 19.238 C 220.400 19.092,219.815 18.628,219.100 18.206 C 218.385 17.785,217.620 17.294,217.400 17.115 C 217.180 16.936,215.920 16.061,214.600 15.170 C 213.280 14.279,210.963 12.706,209.451 11.675 C 207.940 10.644,206.406 9.620,206.043 9.400 C 205.680 9.180,204.847 8.631,204.192 8.180 C 201.859 6.576,201.137 6.450,199.504 7.363 " stroke="none" fill="#f39425" fill-rule="evenodd"></path><path id="path1" d="M0.000 200.800 L 0.000 401.600 200.000 401.600 L 400.000 401.600 400.000 200.800 L 400.000 0.000 200.000 0.000 L 0.000 0.000 0.000 200.800 M203.551 6.073 C 204.788 6.773,205.944 7.583,206.120 7.873 C 206.296 8.163,206.630 8.400,206.862 8.400 C 207.094 8.400,207.819 8.850,208.473 9.400 C 209.127 9.950,209.911 10.400,210.217 10.400 C 210.522 10.400,210.965 10.760,211.200 11.200 C 211.435 11.640,211.858 12.000,212.139 12.000 C 212.419 12.000,212.998 12.318,213.425 12.706 C 213.851 13.095,215.190 14.034,216.400 14.793 C 217.610 15.552,218.690 16.278,218.800 16.405 C 219.089 16.740,227.114 22.101,228.273 22.734 C 228.811 23.028,229.349 23.523,229.468 23.834 C 229.588 24.145,229.923 24.400,230.212 24.400 C 230.502 24.400,231.249 24.805,231.872 25.300 C 232.496 25.795,233.298 26.380,233.655 26.600 C 234.012 26.820,235.616 27.900,237.221 29.000 C 238.825 30.100,240.454 31.190,240.841 31.423 C 241.791 31.994,243.464 33.208,244.808 34.300 C 245.417 34.795,246.020 35.200,246.147 35.200 C 246.274 35.200,248.019 36.325,250.026 37.700 C 252.032 39.075,254.080 40.470,254.577 40.800 C 257.130 42.495,257.827 43.025,258.120 43.490 C 258.296 43.771,258.687 44.000,258.989 44.000 C 259.291 44.000,260.073 44.450,260.727 45.000 C 261.381 45.550,262.081 46.000,262.282 46.000 C 262.484 46.000,262.998 46.316,263.425 46.703 C 263.851 47.090,264.722 47.765,265.360 48.203 C 265.997 48.641,266.909 49.270,267.386 49.600 C 267.862 49.930,268.870 50.594,269.626 51.076 C 270.382 51.558,271.191 52.119,271.425 52.322 C 271.659 52.525,272.289 52.923,272.825 53.206 C 273.361 53.488,273.890 53.848,274.000 54.004 C 274.110 54.160,274.795 54.593,275.521 54.965 C 276.248 55.338,277.238 56.001,277.721 56.440 C 278.205 56.878,278.885 57.499,279.234 57.819 C 279.582 58.138,279.981 58.400,280.120 58.400 C 280.635 58.400,284.186 60.833,284.507 61.406 C 284.690 61.733,285.036 62.000,285.275 62.000 C 285.515 62.000,287.231 63.035,289.089 64.300 C 290.947 65.565,293.037 66.954,293.733 67.386 C 294.430 67.818,295.238 68.403,295.529 68.686 C 295.819 68.969,296.292 69.200,296.580 69.200 C 296.867 69.200,297.330 69.475,297.609 69.811 C 298.142 70.453,301.481 72.800,301.862 72.800 C 301.985 72.800,302.593 73.205,303.215 73.700 C 303.836 74.195,304.992 75.050,305.782 75.600 C 306.572 76.150,307.674 77.005,308.230 77.500 C 308.786 77.995,309.404 78.400,309.603 78.400 C 309.975 78.400,312.173 79.811,313.213 80.718 C 313.833 81.258,318.099 84.105,320.105 85.318 C 320.758 85.713,321.555 86.298,321.875 86.618 C 322.195 86.938,322.597 87.200,322.767 87.200 C 322.938 87.200,323.457 87.515,323.921 87.900 C 324.385 88.285,325.762 89.208,326.982 89.951 C 328.202 90.694,329.200 91.447,329.200 91.624 C 329.200 91.801,329.515 92.047,329.900 92.171 C 330.285 92.294,331.123 92.846,331.762 93.398 C 332.401 93.949,333.106 94.400,333.329 94.400 C 333.551 94.400,334.018 94.679,334.366 95.019 C 334.908 95.548,336.820 96.861,341.041 99.600 C 343.357 101.104,350.221 105.797,350.400 106.000 C 350.510 106.124,351.590 106.841,352.800 107.593 C 354.706 108.777,356.071 109.744,357.838 111.163 C 358.078 111.357,358.843 111.809,359.538 112.168 C 360.232 112.527,360.800 112.978,360.800 113.171 C 360.800 113.364,361.340 113.710,362.000 113.940 C 362.660 114.170,363.200 114.507,363.200 114.688 C 363.200 114.870,363.830 115.357,364.600 115.772 C 365.370 116.187,366.000 116.678,366.000 116.863 C 366.000 117.048,366.206 117.200,366.459 117.200 C 366.870 117.200,371.106 119.815,371.600 120.374 C 372.081 120.918,378.019 124.800,378.371 124.800 C 378.585 124.800,378.904 125.038,379.080 125.328 C 379.256 125.619,380.525 126.544,381.900 127.385 C 383.275 128.226,384.400 129.068,384.400 129.257 C 384.400 129.446,384.645 129.600,384.945 129.600 C 385.457 129.600,387.376 130.922,389.563 132.781 C 390.093 133.231,390.678 133.600,390.863 133.600 C 391.049 133.600,391.537 133.915,391.949 134.300 C 392.362 134.685,393.688 135.593,394.897 136.318 C 396.106 137.043,397.480 138.047,397.951 138.548 L 398.807 139.459 398.802 268.800 C 398.797 388.718,398.748 398.194,398.133 398.874 C 397.504 399.569,396.454 399.602,378.278 399.504 L 359.086 399.400 358.335 398.394 C 357.604 397.415,357.584 394.216,357.588 279.994 C 357.592 187.330,357.488 162.396,357.096 161.631 C 356.621 160.703,353.880 158.447,352.200 157.600 C 351.760 157.378,350.590 156.568,349.600 155.800 C 348.610 155.032,347.440 154.222,347.000 154.000 C 346.560 153.778,345.390 152.968,344.400 152.200 C 343.410 151.432,342.154 150.611,341.608 150.377 C 341.063 150.142,340.523 149.823,340.408 149.668 C 340.294 149.512,337.815 147.792,334.900 145.845 C 331.985 143.899,329.600 142.147,329.600 141.953 C 329.600 141.759,329.344 141.600,329.031 141.600 C 328.718 141.600,327.927 141.150,327.273 140.600 C 326.619 140.050,325.983 139.600,325.860 139.600 C 325.611 139.600,324.113 138.595,320.786 136.196 C 318.333 134.428,317.547 133.902,315.841 132.889 C 315.204 132.510,314.399 131.885,314.052 131.500 C 313.706 131.115,313.237 130.797,313.011 130.794 C 312.785 130.791,311.700 130.155,310.600 129.383 C 309.500 128.610,308.153 127.668,307.607 127.289 C 307.060 126.910,306.295 126.285,305.907 125.900 C 305.518 125.515,305.028 125.200,304.818 125.200 C 304.387 125.200,301.531 123.325,301.209 122.832 C 301.094 122.656,300.415 122.212,299.700 121.846 C 298.985 121.479,298.400 121.008,298.400 120.797 C 298.400 120.587,297.963 120.306,297.429 120.172 C 296.896 120.038,296.148 119.584,295.767 119.164 C 295.387 118.744,294.865 118.400,294.608 118.400 C 294.350 118.400,293.717 117.950,293.200 117.400 C 292.683 116.850,292.120 116.400,291.948 116.400 C 291.493 116.400,286.971 113.416,285.128 111.900 C 284.660 111.515,284.159 111.200,284.014 111.200 C 283.869 111.200,283.385 110.859,282.938 110.443 C 282.491 110.026,281.602 109.390,280.962 109.030 C 278.302 107.532,275.488 105.532,274.877 104.707 C 274.590 104.318,274.015 104.000,273.601 104.000 C 273.186 104.000,272.735 103.819,272.598 103.597 C 272.462 103.376,271.146 102.390,269.675 101.406 C 268.204 100.422,265.740 98.719,264.200 97.622 C 262.660 96.524,261.040 95.457,260.600 95.250 C 260.160 95.042,258.822 94.136,257.628 93.236 C 256.433 92.336,255.333 91.600,255.183 91.600 C 255.033 91.600,254.276 91.105,253.500 90.500 C 252.725 89.895,251.755 89.175,251.345 88.900 C 250.935 88.624,249.520 87.675,248.200 86.789 C 246.880 85.903,244.562 84.328,243.049 83.289 C 241.536 82.250,239.900 81.130,239.413 80.800 C 238.926 80.470,237.754 79.660,236.809 79.000 C 235.864 78.340,234.150 77.170,233.000 76.400 C 231.850 75.630,230.139 74.460,229.197 73.800 C 228.256 73.140,227.153 72.404,226.746 72.164 C 226.339 71.925,225.689 71.442,225.302 71.092 C 224.915 70.742,224.149 70.262,223.599 70.026 C 223.050 69.790,221.790 68.968,220.800 68.198 C 219.810 67.429,218.730 66.681,218.400 66.535 C 218.070 66.389,217.530 66.022,217.200 65.719 C 216.870 65.417,214.980 64.099,213.000 62.792 C 211.020 61.485,208.680 59.876,207.800 59.215 C 206.920 58.554,205.930 57.889,205.600 57.736 C 205.270 57.584,204.460 57.057,203.800 56.566 C 202.152 55.341,198.800 55.260,198.800 56.447 C 198.800 56.645,198.080 57.095,197.200 57.447 C 196.320 57.799,195.600 58.218,195.600 58.379 C 195.600 58.658,191.469 61.534,189.251 62.800 C 188.673 63.130,188.096 63.540,187.970 63.711 C 187.843 63.882,186.763 64.637,185.570 65.389 C 184.376 66.141,183.130 67.001,182.800 67.301 C 182.470 67.600,181.212 68.465,180.003 69.222 C 178.795 69.980,177.490 70.915,177.103 71.300 C 176.717 71.685,176.158 72.000,175.862 72.000 C 175.566 72.000,174.981 72.381,174.562 72.846 C 174.143 73.311,173.440 73.853,173.000 74.051 C 172.560 74.248,171.210 75.127,170.000 76.004 C 168.790 76.881,167.575 77.599,167.300 77.599 C 167.025 77.600,166.800 77.757,166.800 77.949 C 166.800 78.141,165.787 78.906,164.549 79.649 C 163.312 80.392,162.005 81.270,161.646 81.600 C 160.846 82.336,156.721 85.180,155.266 86.000 C 154.679 86.330,154.089 86.751,153.954 86.936 C 153.819 87.121,153.360 87.481,152.935 87.736 C 152.509 87.991,151.557 88.560,150.818 89.000 C 150.079 89.440,149.143 90.115,148.737 90.500 C 148.332 90.885,147.933 91.200,147.852 91.200 C 147.703 91.200,144.059 93.637,137.236 98.300 C 135.224 99.675,133.403 100.800,133.189 100.800 C 132.975 100.800,132.800 100.957,132.800 101.149 C 132.800 101.341,131.793 102.106,130.562 102.849 C 129.331 103.592,128.026 104.476,127.662 104.814 C 127.298 105.151,126.280 105.885,125.400 106.444 C 122.299 108.416,120.198 109.800,120.000 110.003 C 119.810 110.197,117.343 111.898,115.362 113.200 C 114.860 113.530,112.683 115.013,110.525 116.495 C 108.366 117.977,105.022 120.272,103.093 121.595 C 101.164 122.918,99.409 124.000,99.193 124.000 C 98.977 124.000,98.800 124.186,98.800 124.413 C 98.800 124.640,98.485 124.955,98.100 125.113 C 96.985 125.570,93.831 127.744,93.480 128.296 C 93.304 128.573,93.006 128.800,92.818 128.800 C 92.409 128.800,86.539 132.694,85.408 133.715 C 84.972 134.109,84.207 134.534,83.708 134.659 C 83.209 134.784,82.800 135.018,82.800 135.179 C 82.800 135.474,78.375 138.524,76.444 139.560 C 75.870 139.869,75.269 140.340,75.109 140.608 C 74.950 140.876,74.275 141.321,73.609 141.596 C 72.944 141.872,72.400 142.225,72.400 142.381 C 72.400 142.537,71.455 143.268,70.300 144.006 C 69.145 144.743,66.707 146.348,64.883 147.573 C 63.059 148.798,61.259 149.980,60.883 150.200 C 60.507 150.420,59.210 151.332,58.000 152.227 C 56.790 153.122,55.530 153.977,55.200 154.127 C 54.870 154.277,53.790 155.031,52.800 155.803 C 51.810 156.575,50.505 157.403,49.900 157.643 C 49.295 157.882,48.800 158.236,48.800 158.429 C 48.800 158.622,48.305 159.039,47.700 159.356 C 47.095 159.673,46.195 160.314,45.700 160.782 L 44.800 161.631 44.800 259.773 C 44.800 348.896,44.858 357.937,45.433 358.157 C 47.259 358.858,279.223 358.405,279.513 357.700 C 280.022 356.459,279.861 206.409,279.350 206.085 C 278.580 205.598,276.750 204.241,275.592 203.300 C 274.983 202.805,274.301 202.400,274.076 202.400 C 273.852 202.400,273.248 202.043,272.734 201.607 C 271.921 200.917,268.756 198.739,263.500 195.253 C 262.675 194.706,262.000 194.110,262.000 193.929 C 262.000 193.748,261.775 193.597,261.500 193.594 C 261.225 193.591,260.100 192.955,259.000 192.181 C 257.900 191.408,256.284 190.302,255.409 189.725 C 254.534 189.147,253.576 188.433,253.280 188.137 C 252.985 187.842,252.486 187.600,252.171 187.600 C 251.857 187.600,251.600 187.425,251.600 187.210 C 251.600 186.996,251.015 186.519,250.300 186.151 C 249.585 185.783,248.261 184.878,247.359 184.141 C 246.456 183.403,245.536 182.800,245.314 182.800 C 244.957 182.800,242.989 181.436,241.166 179.925 C 240.818 179.636,240.063 179.130,239.489 178.800 C 238.915 178.470,236.860 177.105,234.922 175.767 C 231.094 173.124,227.121 170.454,224.600 168.830 C 223.720 168.264,222.820 167.606,222.600 167.369 C 222.380 167.131,221.212 166.321,220.003 165.569 C 218.795 164.816,217.513 163.930,217.154 163.600 C 216.795 163.270,215.488 162.392,214.251 161.649 C 213.013 160.906,212.000 160.141,212.000 159.949 C 212.000 159.757,211.794 159.600,211.541 159.600 C 210.880 159.600,206.800 156.828,206.800 156.379 C 206.800 156.170,206.569 156.000,206.287 156.000 C 206.004 156.000,204.795 155.370,203.600 154.600 C 200.981 152.913,200.193 153.125,195.537 156.768 C 194.952 157.226,194.290 157.600,194.065 157.600 C 193.841 157.600,193.419 157.838,193.128 158.129 C 192.534 158.723,187.965 161.961,186.756 162.644 C 186.324 162.889,185.560 163.474,185.059 163.944 C 184.558 164.415,183.963 164.800,183.736 164.800 C 183.509 164.800,182.998 165.160,182.600 165.600 C 182.202 166.040,181.648 166.400,181.369 166.400 C 181.090 166.400,180.327 166.850,179.673 167.400 C 179.019 167.950,178.363 168.400,178.216 168.400 C 177.937 168.400,175.153 170.399,174.800 170.853 C 174.690 170.994,174.038 171.445,173.352 171.855 C 172.666 172.265,170.264 173.860,168.015 175.400 C 165.767 176.940,163.450 178.470,162.867 178.800 C 162.284 179.130,161.570 179.715,161.281 180.100 C 160.991 180.485,160.523 180.800,160.240 180.800 C 159.956 180.800,159.201 181.250,158.562 181.800 C 157.923 182.349,157.184 182.799,156.920 182.800 C 156.656 182.800,156.296 183.044,156.120 183.342 C 155.944 183.639,155.361 184.114,154.825 184.396 C 154.289 184.678,153.659 185.075,153.425 185.278 C 153.042 185.611,152.194 186.176,149.803 187.694 C 149.365 187.972,148.496 188.605,147.872 189.100 C 147.249 189.595,146.502 190.000,146.212 190.000 C 145.923 190.000,145.588 190.255,145.468 190.566 C 145.349 190.877,144.795 191.372,144.238 191.666 C 143.680 191.960,141.554 193.328,139.512 194.706 C 135.599 197.347,134.964 197.802,132.942 199.404 C 132.250 199.952,131.587 200.400,131.469 200.400 C 131.038 200.400,127.200 202.928,127.200 203.211 C 127.200 203.372,126.703 203.709,126.097 203.960 C 125.490 204.211,124.410 204.962,123.697 205.629 L 122.400 206.841 122.400 263.847 C 122.400 321.390,122.386 321.995,121.040 322.894 C 120.798 323.056,112.010 323.191,101.510 323.194 L 82.421 323.200 81.810 322.020 C 81.270 320.976,81.200 313.031,81.200 253.039 C 81.200 183.707,81.211 183.200,82.664 183.200 C 82.959 183.200,83.200 183.058,83.200 182.885 C 83.200 182.568,87.401 179.600,87.849 179.600 C 87.981 179.600,88.935 178.892,89.968 178.027 C 91.001 177.162,92.318 176.335,92.895 176.191 C 93.471 176.046,94.041 175.671,94.161 175.358 C 94.281 175.044,94.789 174.610,95.290 174.393 C 95.790 174.175,98.000 172.733,100.200 171.188 C 103.926 168.572,106.233 167.015,110.200 164.440 C 111.080 163.869,112.790 162.636,114.000 161.701 C 115.210 160.766,116.365 160.000,116.566 160.000 C 116.768 160.000,117.218 159.715,117.566 159.367 C 118.200 158.734,124.751 154.332,126.744 153.200 C 127.325 152.870,127.890 152.482,128.000 152.338 C 128.400 151.815,132.391 149.200,132.790 149.200 C 133.016 149.200,133.200 149.014,133.200 148.787 C 133.200 148.561,133.515 148.260,133.900 148.120 C 134.285 147.980,135.191 147.355,135.914 146.733 C 136.637 146.110,137.431 145.600,137.680 145.600 C 137.929 145.600,138.418 145.315,138.766 144.967 C 139.115 144.619,141.091 143.224,143.159 141.867 C 145.226 140.510,147.319 139.130,147.810 138.800 C 148.300 138.470,149.669 137.556,150.851 136.770 C 152.033 135.983,153.450 135.040,154.000 134.674 C 154.550 134.308,156.080 133.195,157.400 132.201 C 158.720 131.207,160.295 130.198,160.900 129.958 C 161.505 129.718,162.000 129.381,162.000 129.209 C 162.000 129.038,162.522 128.681,163.160 128.416 C 163.799 128.152,164.730 127.500,165.230 126.968 C 165.730 126.436,166.288 126.000,166.470 126.000 C 166.651 126.000,167.115 125.719,167.500 125.376 C 167.885 125.033,169.387 123.998,170.837 123.076 C 172.287 122.154,173.741 121.220,174.067 121.000 C 174.393 120.780,175.816 119.841,177.230 118.912 C 178.643 117.984,180.070 116.974,180.400 116.668 C 180.730 116.361,181.446 115.877,181.992 115.592 C 182.537 115.307,183.825 114.427,184.854 113.637 C 185.882 112.847,187.638 111.660,188.754 111.000 C 189.871 110.340,190.788 109.656,190.792 109.480 C 190.797 109.303,191.469 108.880,192.286 108.538 C 193.104 108.197,193.959 107.699,194.186 107.433 C 195.109 106.352,200.321 103.200,201.185 103.200 C 201.694 103.200,203.636 104.235,205.500 105.500 C 207.364 106.765,209.904 108.471,211.144 109.292 C 212.385 110.113,213.760 111.073,214.200 111.427 C 214.640 111.780,215.405 112.229,215.900 112.425 C 216.395 112.620,216.800 112.965,216.800 113.190 C 216.800 113.416,217.025 113.605,217.300 113.611 C 217.739 113.621,218.865 114.371,221.800 116.609 C 222.240 116.944,224.670 118.597,227.200 120.282 C 229.730 121.967,233.121 124.258,234.735 125.373 C 236.349 126.488,237.969 127.582,238.335 127.805 C 239.916 128.768,245.050 132.245,245.599 132.726 C 246.591 133.594,248.939 135.153,249.900 135.580 C 250.395 135.800,250.800 136.165,250.800 136.390 C 250.800 136.616,251.008 136.800,251.262 136.800 C 251.516 136.800,252.281 137.218,252.962 137.729 C 253.643 138.241,254.470 138.781,254.800 138.929 C 255.130 139.078,256.210 139.829,257.200 140.598 C 258.190 141.368,259.367 142.159,259.816 142.357 C 260.265 142.555,260.873 143.005,261.165 143.358 C 261.458 143.711,261.912 144.000,262.174 144.000 C 262.435 144.000,262.998 144.320,263.425 144.712 C 263.851 145.104,264.771 145.779,265.468 146.212 C 266.711 146.984,272.924 151.214,276.314 153.596 C 277.257 154.258,278.169 154.800,278.342 154.800 C 278.515 154.800,279.047 155.250,279.525 155.800 C 280.003 156.350,280.621 156.812,280.897 156.827 C 281.174 156.841,282.210 157.468,283.200 158.220 C 284.190 158.971,285.642 159.936,286.426 160.363 C 287.210 160.791,288.444 161.694,289.168 162.370 C 289.892 163.047,290.691 163.602,290.942 163.605 C 291.194 163.608,291.850 163.973,292.400 164.416 C 292.950 164.858,294.411 165.891,295.646 166.710 C 296.882 167.530,299.734 169.460,301.984 171.000 C 304.234 172.540,306.372 173.980,306.734 174.200 C 307.097 174.420,307.904 175.005,308.528 175.500 C 309.151 175.995,309.911 176.400,310.217 176.400 C 310.522 176.400,310.965 176.760,311.200 177.200 C 311.435 177.640,311.847 178.000,312.114 178.000 C 312.381 178.000,313.603 178.788,314.830 179.751 C 316.056 180.714,317.417 181.615,317.854 181.754 C 318.291 181.892,319.268 182.645,320.024 183.425 L 321.400 184.844 321.502 291.098 L 321.604 397.352 320.527 398.476 L 319.450 399.600 162.499 399.600 C 3.343 399.600,4.420 399.609,3.506 398.240 C 3.344 397.998,3.212 339.750,3.212 268.800 C 3.212 197.850,3.344 139.604,3.506 139.364 C 3.836 138.875,10.666 133.907,11.600 133.476 C 11.930 133.324,13.010 132.569,14.000 131.797 C 14.990 131.025,16.295 130.197,16.900 129.957 C 17.505 129.718,18.000 129.398,18.000 129.247 C 18.000 129.096,18.585 128.629,19.300 128.209 C 20.015 127.789,20.814 127.255,21.076 127.022 C 21.717 126.453,23.772 125.041,26.200 123.499 C 27.300 122.801,28.290 122.115,28.400 121.975 C 28.510 121.834,29.410 121.201,30.400 120.568 C 31.390 119.935,32.479 119.233,32.819 119.008 C 33.160 118.784,34.043 118.240,34.782 117.800 C 35.521 117.360,36.457 116.685,36.863 116.300 C 37.268 115.915,37.692 115.600,37.803 115.600 C 37.915 115.600,38.704 115.105,39.556 114.500 C 40.408 113.895,41.512 113.130,42.008 112.800 C 42.505 112.470,43.381 111.820,43.956 111.355 C 44.530 110.890,45.381 110.390,45.847 110.245 C 46.313 110.099,47.016 109.624,47.409 109.190 C 47.802 108.755,48.372 108.400,48.675 108.400 C 48.977 108.400,49.322 108.146,49.441 107.837 C 49.560 107.527,50.185 107.055,50.829 106.788 C 51.473 106.521,52.000 106.175,52.000 106.019 C 52.000 105.863,52.495 105.484,53.100 105.178 C 53.705 104.871,54.672 104.256,55.250 103.810 C 57.012 102.450,58.077 101.717,61.607 99.430 C 63.473 98.221,65.285 96.955,65.634 96.616 C 65.982 96.277,66.471 96.000,66.719 96.000 C 66.968 96.000,67.357 95.655,67.583 95.233 C 67.809 94.810,68.535 94.346,69.197 94.201 C 69.859 94.055,70.400 93.789,70.400 93.608 C 70.400 93.427,70.985 92.918,71.700 92.476 C 73.008 91.668,77.456 88.675,78.200 88.102 C 78.420 87.932,79.140 87.447,79.800 87.023 C 80.460 86.600,81.238 86.016,81.529 85.727 C 81.819 85.437,82.308 85.200,82.614 85.200 C 82.921 85.200,83.365 84.840,83.600 84.400 C 83.835 83.960,84.214 83.600,84.441 83.600 C 84.668 83.600,85.443 83.150,86.164 82.600 C 86.886 82.050,87.623 81.600,87.804 81.600 C 87.985 81.600,88.418 81.325,88.766 80.988 C 89.773 80.017,92.951 78.015,93.500 78.007 C 93.775 78.003,94.000 77.843,94.000 77.651 C 94.000 77.322,103.390 70.800,103.864 70.800 C 103.985 70.800,104.580 70.395,105.187 69.900 C 106.337 68.961,106.894 68.568,109.174 67.090 C 109.930 66.601,110.936 65.930,111.410 65.600 C 114.104 63.726,115.828 62.531,116.608 62.000 C 119.017 60.359,123.462 57.288,124.715 56.400 C 125.491 55.850,126.545 55.130,127.056 54.800 C 127.567 54.470,130.088 52.760,132.658 51.000 C 135.228 49.240,137.661 47.671,138.065 47.513 C 138.469 47.355,138.800 47.042,138.800 46.818 C 138.800 46.594,139.385 46.135,140.100 45.798 C 141.939 44.932,143.758 43.857,144.043 43.469 C 144.176 43.287,144.737 42.837,145.289 42.469 C 145.841 42.101,147.065 41.260,148.010 40.600 C 148.955 39.940,150.138 39.130,150.640 38.800 C 151.142 38.470,153.207 37.075,155.229 35.700 C 157.250 34.325,159.108 33.200,159.356 33.200 C 159.604 33.200,160.032 32.840,160.307 32.400 C 160.582 31.960,161.075 31.600,161.403 31.600 C 161.732 31.600,162.000 31.450,162.000 31.267 C 162.000 31.084,162.945 30.339,164.100 29.612 C 165.255 28.884,166.560 28.043,167.000 27.744 C 168.994 26.386,173.387 23.378,177.690 20.422 C 180.269 18.650,182.564 17.200,182.790 17.200 C 183.015 17.200,183.200 17.038,183.200 16.840 C 183.200 16.641,183.785 16.102,184.500 15.642 C 186.412 14.410,188.113 13.283,188.847 12.760 C 189.202 12.507,190.624 11.558,192.006 10.650 C 193.388 9.743,194.904 8.730,195.374 8.400 C 195.844 8.070,196.820 7.440,197.544 7.000 C 198.267 6.560,199.233 5.885,199.691 5.500 C 200.793 4.572,200.937 4.593,203.551 6.073 " stroke="none" fill="#fcfcfb" fill-rule="evenodd"></path><path id="path2" d="M199.691 5.500 C 199.233 5.885,198.267 6.560,197.544 7.000 C 196.820 7.440,195.844 8.070,195.374 8.400 C 194.904 8.730,193.388 9.743,192.006 10.650 C 190.624 11.558,189.202 12.507,188.847 12.760 C 188.113 13.283,186.412 14.410,184.500 15.642 C 183.785 16.102,183.200 16.641,183.200 16.840 C 183.200 17.038,183.015 17.200,182.790 17.200 C 182.564 17.200,180.269 18.650,177.690 20.422 C 173.387 23.378,168.994 26.386,167.000 27.744 C 166.560 28.043,165.255 28.884,164.100 29.612 C 162.945 30.339,162.000 31.084,162.000 31.267 C 162.000 31.450,161.732 31.600,161.403 31.600 C 161.075 31.600,160.582 31.960,160.307 32.400 C 160.032 32.840,159.604 33.200,159.356 33.200 C 159.108 33.200,157.250 34.325,155.229 35.700 C 153.207 37.075,151.142 38.470,150.640 38.800 C 150.138 39.130,148.955 39.940,148.010 40.600 C 147.065 41.260,145.841 42.101,145.289 42.469 C 144.737 42.837,144.176 43.287,144.043 43.469 C 143.758 43.857,141.939 44.932,140.100 45.798 C 139.385 46.135,138.800 46.594,138.800 46.818 C 138.800 47.042,138.469 47.355,138.065 47.513 C 137.661 47.671,135.228 49.240,132.658 51.000 C 130.088 52.760,127.567 54.470,127.056 54.800 C 126.545 55.130,125.491 55.850,124.715 56.400 C 123.462 57.288,119.017 60.359,116.608 62.000 C 115.828 62.531,114.104 63.726,111.410 65.600 C 110.936 65.930,109.930 66.601,109.174 67.090 C 106.894 68.568,106.337 68.961,105.187 69.900 C 104.580 70.395,103.985 70.800,103.864 70.800 C 103.390 70.800,94.000 77.322,94.000 77.651 C 94.000 77.843,93.775 78.003,93.500 78.007 C 92.951 78.015,89.773 80.017,88.766 80.988 C 88.418 81.325,87.985 81.600,87.804 81.600 C 87.623 81.600,86.886 82.050,86.164 82.600 C 85.443 83.150,84.668 83.600,84.441 83.600 C 84.214 83.600,83.835 83.960,83.600 84.400 C 83.365 84.840,82.921 85.200,82.614 85.200 C 82.308 85.200,81.819 85.437,81.529 85.727 C 81.238 86.016,80.460 86.600,79.800 87.023 C 79.140 87.447,78.420 87.932,78.200 88.102 C 77.456 88.675,73.008 91.668,71.700 92.476 C 70.985 92.918,70.400 93.427,70.400 93.608 C 70.400 93.789,69.859 94.055,69.197 94.201 C 68.535 94.346,67.809 94.810,67.583 95.233 C 67.357 95.655,66.968 96.000,66.719 96.000 C 66.471 96.000,65.982 96.277,65.634 96.616 C 65.285 96.955,63.473 98.221,61.607 99.430 C 58.077 101.717,57.012 102.450,55.250 103.810 C 54.672 104.256,53.705 104.871,53.100 105.178 C 52.495 105.484,52.000 105.863,52.000 106.019 C 52.000 106.175,51.473 106.521,50.829 106.788 C 50.185 107.055,49.560 107.527,49.441 107.837 C 49.322 108.146,48.977 108.400,48.675 108.400 C 48.372 108.400,47.802 108.755,47.409 109.190 C 47.016 109.624,46.313 110.099,45.847 110.245 C 45.381 110.390,44.530 110.890,43.956 111.355 C 43.381 111.820,42.505 112.470,42.008 112.800 C 41.512 113.130,40.408 113.895,39.556 114.500 C 38.704 115.105,37.915 115.600,37.803 115.600 C 37.692 115.600,37.268 115.915,36.863 116.300 C 36.457 116.685,35.521 117.360,34.782 117.800 C 34.043 118.240,33.160 118.784,32.819 119.008 C 32.479 119.233,31.390 119.935,30.400 120.568 C 29.410 121.201,28.510 121.834,28.400 121.975 C 28.290 122.115,27.300 122.801,26.200 123.499 C 23.772 125.041,21.717 126.453,21.076 127.022 C 20.814 127.255,20.015 127.789,19.300 128.209 C 18.585 128.629,18.000 129.096,18.000 129.247 C 18.000 129.398,17.505 129.718,16.900 129.957 C 16.295 130.197,14.990 131.025,14.000 131.797 C 13.010 132.569,11.930 133.324,11.600 133.476 C 10.666 133.907,3.836 138.875,3.506 139.364 C 3.344 139.604,3.212 197.850,3.212 268.800 C 3.212 339.750,3.344 397.998,3.506 398.240 C 4.420 399.609,3.343 399.600,162.499 399.600 L 319.450 399.600 320.527 398.476 L 321.604 397.352 321.502 291.098 L 321.400 184.844 320.024 183.425 C 319.268 182.645,318.291 181.892,317.854 181.754 C 317.417 181.615,316.056 180.714,314.830 179.751 C 313.603 178.788,312.381 178.000,312.114 178.000 C 311.847 178.000,311.435 177.640,311.200 177.200 C 310.965 176.760,310.522 176.400,310.217 176.400 C 309.911 176.400,309.151 175.995,308.528 175.500 C 307.904 175.005,307.097 174.420,306.734 174.200 C 306.372 173.980,304.234 172.540,301.984 171.000 C 299.734 169.460,296.882 167.530,295.646 166.710 C 294.411 165.891,292.950 164.858,292.400 164.416 C 291.850 163.973,291.194 163.608,290.942 163.605 C 290.691 163.602,289.892 163.047,289.168 162.370 C 288.444 161.694,287.210 160.791,286.426 160.363 C 285.642 159.936,284.190 158.971,283.200 158.220 C 282.210 157.468,281.174 156.841,280.897 156.827 C 280.621 156.812,280.003 156.350,279.525 155.800 C 279.047 155.250,278.515 154.800,278.342 154.800 C 278.169 154.800,277.257 154.258,276.314 153.596 C 272.924 151.214,266.711 146.984,265.468 146.212 C 264.771 145.779,263.851 145.104,263.425 144.712 C 262.998 144.320,262.435 144.000,262.174 144.000 C 261.912 144.000,261.458 143.711,261.165 143.358 C 260.873 143.005,260.265 142.555,259.816 142.357 C 259.367 142.159,258.190 141.368,257.200 140.598 C 256.210 139.829,255.130 139.078,254.800 138.929 C 254.470 138.781,253.643 138.241,252.962 137.729 C 252.281 137.218,251.516 136.800,251.262 136.800 C 251.008 136.800,250.800 136.616,250.800 136.390 C 250.800 136.165,250.395 135.800,249.900 135.580 C 248.939 135.153,246.591 133.594,245.599 132.726 C 245.050 132.245,239.916 128.768,238.335 127.805 C 237.969 127.582,236.349 126.488,234.735 125.373 C 233.121 124.258,229.730 121.967,227.200 120.282 C 224.670 118.597,222.240 116.944,221.800 116.609 C 218.865 114.371,217.739 113.621,217.300 113.611 C 217.025 113.605,216.800 113.416,216.800 113.190 C 216.800 112.965,216.395 112.620,215.900 112.425 C 215.405 112.229,214.640 111.780,214.200 111.427 C 213.760 111.073,212.385 110.113,211.144 109.292 C 209.904 108.471,207.364 106.765,205.500 105.500 C 203.636 104.235,201.694 103.200,201.185 103.200 C 200.321 103.200,195.109 106.352,194.186 107.433 C 193.959 107.699,193.104 108.197,192.286 108.538 C 191.469 108.880,190.797 109.303,190.792 109.480 C 190.788 109.656,189.871 110.340,188.754 111.000 C 187.638 111.660,185.882 112.847,184.854 113.637 C 183.825 114.427,182.537 115.307,181.992 115.592 C 181.446 115.877,180.730 116.361,180.400 116.668 C 180.070 116.974,178.643 117.984,177.230 118.912 C 175.816 119.841,174.393 120.780,174.067 121.000 C 173.741 121.220,172.287 122.154,170.837 123.076 C 169.387 123.998,167.885 125.033,167.500 125.376 C 167.115 125.719,166.651 126.000,166.470 126.000 C 166.288 126.000,165.730 126.436,165.230 126.968 C 164.730 127.500,163.799 128.152,163.160 128.416 C 162.522 128.681,162.000 129.038,162.000 129.209 C 162.000 129.381,161.505 129.718,160.900 129.958 C 160.295 130.198,158.720 131.207,157.400 132.201 C 156.080 133.195,154.550 134.308,154.000 134.674 C 153.450 135.040,152.033 135.983,150.851 136.770 C 149.669 137.556,148.300 138.470,147.810 138.800 C 147.319 139.130,145.226 140.510,143.159 141.867 C 141.091 143.224,139.115 144.619,138.766 144.967 C 138.418 145.315,137.929 145.600,137.680 145.600 C 137.431 145.600,136.637 146.110,135.914 146.733 C 135.191 147.355,134.285 147.980,133.900 148.120 C 133.515 148.260,133.200 148.561,133.200 148.787 C 133.200 149.014,133.016 149.200,132.790 149.200 C 132.391 149.200,128.400 151.815,128.000 152.338 C 127.890 152.482,127.325 152.870,126.744 153.200 C 124.751 154.332,118.200 158.734,117.566 159.367 C 117.218 159.715,116.768 160.000,116.566 160.000 C 116.365 160.000,115.210 160.766,114.000 161.701 C 112.790 162.636,111.080 163.869,110.200 164.440 C 106.233 167.015,103.926 168.572,100.200 171.188 C 98.000 172.733,95.790 174.175,95.290 174.393 C 94.789 174.610,94.281 175.044,94.161 175.358 C 94.041 175.671,93.471 176.046,92.895 176.191 C 92.318 176.335,91.001 177.162,89.968 178.027 C 88.935 178.892,87.981 179.600,87.849 179.600 C 87.401 179.600,83.200 182.568,83.200 182.885 C 83.200 183.058,82.959 183.200,82.664 183.200 C 81.211 183.200,81.200 183.707,81.200 253.039 C 81.200 313.031,81.270 320.976,81.810 322.020 L 82.421 323.200 101.510 323.194 C 112.010 323.191,120.798 323.056,121.040 322.894 C 122.386 321.995,122.400 321.390,122.400 263.847 L 122.400 206.841 123.697 205.629 C 124.410 204.962,125.490 204.211,126.097 203.960 C 126.703 203.709,127.200 203.372,127.200 203.211 C 127.200 202.928,131.038 200.400,131.469 200.400 C 131.587 200.400,132.250 199.952,132.942 199.404 C 134.964 197.802,135.599 197.347,139.512 194.706 C 141.554 193.328,143.680 191.960,144.238 191.666 C 144.795 191.372,145.349 190.877,145.468 190.566 C 145.588 190.255,145.923 190.000,146.212 190.000 C 146.502 190.000,147.249 189.595,147.872 189.100 C 148.496 188.605,149.365 187.972,149.803 187.694 C 152.194 186.176,153.042 185.611,153.425 185.278 C 153.659 185.075,154.289 184.678,154.825 184.396 C 155.361 184.114,155.944 183.639,156.120 183.342 C 156.296 183.044,156.656 182.800,156.920 182.800 C 157.184 182.799,157.923 182.349,158.562 181.800 C 159.201 181.250,159.956 180.800,160.240 180.800 C 160.523 180.800,160.991 180.485,161.281 180.100 C 161.570 179.715,162.284 179.130,162.867 178.800 C 163.450 178.470,165.767 176.940,168.015 175.400 C 170.264 173.860,172.666 172.265,173.352 171.855 C 174.038 171.445,174.690 170.994,174.800 170.853 C 175.153 170.399,177.937 168.400,178.216 168.400 C 178.363 168.400,179.019 167.950,179.673 167.400 C 180.327 166.850,181.090 166.400,181.369 166.400 C 181.648 166.400,182.202 166.040,182.600 165.600 C 182.998 165.160,183.509 164.800,183.736 164.800 C 183.963 164.800,184.558 164.415,185.059 163.944 C 185.560 163.474,186.324 162.889,186.756 162.644 C 187.965 161.961,192.534 158.723,193.128 158.129 C 193.419 157.838,193.841 157.600,194.065 157.600 C 194.290 157.600,194.952 157.226,195.537 156.768 C 200.193 153.125,200.981 152.913,203.600 154.600 C 204.795 155.370,206.004 156.000,206.287 156.000 C 206.569 156.000,206.800 156.170,206.800 156.379 C 206.800 156.828,210.880 159.600,211.541 159.600 C 211.794 159.600,212.000 159.757,212.000 159.949 C 212.000 160.141,213.013 160.906,214.251 161.649 C 215.488 162.392,216.795 163.270,217.154 163.600 C 217.513 163.930,218.795 164.816,220.003 165.569 C 221.212 166.321,222.380 167.131,222.600 167.369 C 222.820 167.606,223.720 168.264,224.600 168.830 C 227.121 170.454,231.094 173.124,234.922 175.767 C 236.860 177.105,238.915 178.470,239.489 178.800 C 240.063 179.130,240.818 179.636,241.166 179.925 C 242.989 181.436,244.957 182.800,245.314 182.800 C 245.536 182.800,246.456 183.403,247.359 184.141 C 248.261 184.878,249.585 185.783,250.300 186.151 C 251.015 186.519,251.600 186.996,251.600 187.210 C 251.600 187.425,251.857 187.600,252.171 187.600 C 252.486 187.600,252.985 187.842,253.280 188.137 C 253.576 188.433,254.534 189.147,255.409 189.725 C 256.284 190.302,257.900 191.408,259.000 192.181 C 260.100 192.955,261.225 193.591,261.500 193.594 C 261.775 193.597,262.000 193.748,262.000 193.929 C 262.000 194.110,262.675 194.706,263.500 195.253 C 268.756 198.739,271.921 200.917,272.734 201.607 C 273.248 202.043,273.852 202.400,274.076 202.400 C 274.301 202.400,274.983 202.805,275.592 203.300 C 276.750 204.241,278.580 205.598,279.350 206.085 C 279.861 206.409,280.022 356.459,279.513 357.700 C 279.223 358.405,47.259 358.858,45.433 358.157 C 44.858 357.937,44.800 348.896,44.800 259.773 L 44.800 161.631 45.700 160.782 C 46.195 160.314,47.095 159.673,47.700 159.356 C 48.305 159.039,48.800 158.622,48.800 158.429 C 48.800 158.236,49.295 157.882,49.900 157.643 C 50.505 157.403,51.810 156.575,52.800 155.803 C 53.790 155.031,54.870 154.277,55.200 154.127 C 55.530 153.977,56.790 153.122,58.000 152.227 C 59.210 151.332,60.507 150.420,60.883 150.200 C 61.259 149.980,63.059 148.798,64.883 147.573 C 66.707 146.348,69.145 144.743,70.300 144.006 C 71.455 143.268,72.400 142.537,72.400 142.381 C 72.400 142.225,72.944 141.872,73.609 141.596 C 74.275 141.321,74.950 140.876,75.109 140.608 C 75.269 140.340,75.870 139.869,76.444 139.560 C 78.375 138.524,82.800 135.474,82.800 135.179 C 82.800 135.018,83.209 134.784,83.708 134.659 C 84.207 134.534,84.972 134.109,85.408 133.715 C 86.539 132.694,92.409 128.800,92.818 128.800 C 93.006 128.800,93.304 128.573,93.480 128.296 C 93.831 127.744,96.985 125.570,98.100 125.113 C 98.485 124.955,98.800 124.640,98.800 124.413 C 98.800 124.186,98.977 124.000,99.193 124.000 C 99.409 124.000,101.164 122.918,103.093 121.595 C 105.022 120.272,108.366 117.977,110.525 116.495 C 112.683 115.013,114.860 113.530,115.362 113.200 C 117.343 111.898,119.810 110.197,120.000 110.003 C 120.198 109.800,122.299 108.416,125.400 106.444 C 126.280 105.885,127.298 105.151,127.662 104.814 C 128.026 104.476,129.331 103.592,130.562 102.849 C 131.793 102.106,132.800 101.341,132.800 101.149 C 132.800 100.957,132.975 100.800,133.189 100.800 C 133.403 100.800,135.224 99.675,137.236 98.300 C 144.059 93.637,147.703 91.200,147.852 91.200 C 147.933 91.200,148.332 90.885,148.737 90.500 C 149.143 90.115,150.079 89.440,150.818 89.000 C 151.557 88.560,152.509 87.991,152.935 87.736 C 153.360 87.481,153.819 87.121,153.954 86.936 C 154.089 86.751,154.679 86.330,155.266 86.000 C 156.721 85.180,160.846 82.336,161.646 81.600 C 162.005 81.270,163.312 80.392,164.549 79.649 C 165.787 78.906,166.800 78.141,166.800 77.949 C 166.800 77.757,167.025 77.600,167.300 77.599 C 167.575 77.599,168.790 76.881,170.000 76.004 C 171.210 75.127,172.560 74.248,173.000 74.051 C 173.440 73.853,174.143 73.311,174.562 72.846 C 174.981 72.381,175.566 72.000,175.862 72.000 C 176.158 72.000,176.717 71.685,177.103 71.300 C 177.490 70.915,178.795 69.980,180.003 69.222 C 181.212 68.465,182.470 67.600,182.800 67.301 C 183.130 67.001,184.376 66.141,185.570 65.389 C 186.763 64.637,187.843 63.882,187.970 63.711 C 188.096 63.540,188.673 63.130,189.251 62.800 C 191.469 61.534,195.600 58.658,195.600 58.379 C 195.600 58.218,196.320 57.799,197.200 57.447 C 198.080 57.095,198.800 56.645,198.800 56.447 C 198.800 55.260,202.152 55.341,203.800 56.566 C 204.460 57.057,205.270 57.584,205.600 57.736 C 205.930 57.889,206.920 58.554,207.800 59.215 C 208.680 59.876,211.020 61.485,213.000 62.792 C 214.980 64.099,216.870 65.417,217.200 65.719 C 217.530 66.022,218.070 66.389,218.400 66.535 C 218.730 66.681,219.810 67.429,220.800 68.198 C 221.790 68.968,223.050 69.790,223.599 70.026 C 224.149 70.262,224.915 70.742,225.302 71.092 C 225.689 71.442,226.339 71.925,226.746 72.164 C 227.153 72.404,228.256 73.140,229.197 73.800 C 230.139 74.460,231.850 75.630,233.000 76.400 C 234.150 77.170,235.864 78.340,236.809 79.000 C 237.754 79.660,238.926 80.470,239.413 80.800 C 239.900 81.130,241.536 82.250,243.049 83.289 C 244.562 84.328,246.880 85.903,248.200 86.789 C 249.520 87.675,250.935 88.624,251.345 88.900 C 251.755 89.175,252.725 89.895,253.500 90.500 C 254.276 91.105,255.033 91.600,255.183 91.600 C 255.333 91.600,256.433 92.336,257.628 93.236 C 258.822 94.136,260.160 95.042,260.600 95.250 C 261.040 95.457,262.660 96.524,264.200 97.622 C 265.740 98.719,268.204 100.422,269.675 101.406 C 271.146 102.390,272.462 103.376,272.598 103.597 C 272.735 103.819,273.186 104.000,273.601 104.000 C 274.015 104.000,274.590 104.318,274.877 104.707 C 275.488 105.532,278.302 107.532,280.962 109.030 C 281.602 109.390,282.491 110.026,282.938 110.443 C 283.385 110.859,283.869 111.200,284.014 111.200 C 284.159 111.200,284.660 111.515,285.128 111.900 C 286.971 113.416,291.493 116.400,291.948 116.400 C 292.120 116.400,292.683 116.850,293.200 117.400 C 293.717 117.950,294.350 118.400,294.608 118.400 C 294.865 118.400,295.387 118.744,295.767 119.164 C 296.148 119.584,296.896 120.038,297.429 120.172 C 297.963 120.306,298.400 120.587,298.400 120.797 C 298.400 121.008,298.985 121.479,299.700 121.846 C 300.415 122.212,301.094 122.656,301.209 122.832 C 301.531 123.325,304.387 125.200,304.818 125.200 C 305.028 125.200,305.518 125.515,305.907 125.900 C 306.295 126.285,307.060 126.910,307.607 127.289 C 308.153 127.668,309.500 128.610,310.600 129.383 C 311.700 130.155,312.785 130.791,313.011 130.794 C 313.237 130.797,313.706 131.115,314.052 131.500 C 314.399 131.885,315.204 132.510,315.841 132.889 C 317.547 133.902,318.333 134.428,320.786 136.196 C 324.113 138.595,325.611 139.600,325.860 139.600 C 325.983 139.600,326.619 140.050,327.273 140.600 C 327.927 141.150,328.718 141.600,329.031 141.600 C 329.344 141.600,329.600 141.759,329.600 141.953 C 329.600 142.147,331.985 143.899,334.900 145.845 C 337.815 147.792,340.294 149.512,340.408 149.668 C 340.523 149.823,341.063 150.142,341.608 150.377 C 342.154 150.611,343.410 151.432,344.400 152.200 C 345.390 152.968,346.560 153.778,347.000 154.000 C 347.440 154.222,348.610 155.032,349.600 155.800 C 350.590 156.568,351.760 157.378,352.200 157.600 C 353.880 158.447,356.621 160.703,357.096 161.631 C 357.488 162.396,357.592 187.330,357.588 279.994 C 357.584 394.216,357.604 397.415,358.335 398.394 L 359.086 399.400 378.278 399.504 C 396.454 399.602,397.504 399.569,398.133 398.874 C 398.748 398.194,398.797 388.718,398.802 268.800 L 398.807 139.459 397.951 138.548 C 397.480 138.047,396.106 137.043,394.897 136.318 C 393.688 135.593,392.362 134.685,391.949 134.300 C 391.537 133.915,391.049 133.600,390.863 133.600 C 390.678 133.600,390.093 133.231,389.563 132.781 C 387.376 130.922,385.457 129.600,384.945 129.600 C 384.645 129.600,384.400 129.446,384.400 129.257 C 384.400 129.068,383.275 128.226,381.900 127.385 C 380.525 126.544,379.256 125.619,379.080 125.328 C 378.904 125.038,378.585 124.800,378.371 124.800 C 378.019 124.800,372.081 120.918,371.600 120.374 C 371.106 119.815,366.870 117.200,366.459 117.200 C 366.206 117.200,366.000 117.048,366.000 116.863 C 366.000 116.678,365.370 116.187,364.600 115.772 C 363.830 115.357,363.200 114.870,363.200 114.688 C 363.200 114.507,362.660 114.170,362.000 113.940 C 361.340 113.710,360.800 113.364,360.800 113.171 C 360.800 112.978,360.232 112.527,359.538 112.168 C 358.843 111.809,358.078 111.357,357.838 111.163 C 356.071 109.744,354.706 108.777,352.800 107.593 C 351.590 106.841,350.510 106.124,350.400 106.000 C 350.221 105.797,343.357 101.104,341.041 99.600 C 336.820 96.861,334.908 95.548,334.366 95.019 C 334.018 94.679,333.551 94.400,333.329 94.400 C 333.106 94.400,332.401 93.949,331.762 93.398 C 331.123 92.846,330.285 92.294,329.900 92.171 C 329.515 92.047,329.200 91.801,329.200 91.624 C 329.200 91.447,328.202 90.694,326.982 89.951 C 325.762 89.208,324.385 88.285,323.921 87.900 C 323.457 87.515,322.938 87.200,322.767 87.200 C 322.597 87.200,322.195 86.938,321.875 86.618 C 321.555 86.298,320.758 85.713,320.105 85.318 C 318.099 84.105,313.833 81.258,313.213 80.718 C 312.173 79.811,309.975 78.400,309.603 78.400 C 309.404 78.400,308.786 77.995,308.230 77.500 C 307.674 77.005,306.572 76.150,305.782 75.600 C 304.992 75.050,303.836 74.195,303.215 73.700 C 302.593 73.205,301.985 72.800,301.862 72.800 C 301.481 72.800,298.142 70.453,297.609 69.811 C 297.330 69.475,296.867 69.200,296.580 69.200 C 296.292 69.200,295.819 68.969,295.529 68.686 C 295.238 68.403,294.430 67.818,293.733 67.386 C 293.037 66.954,290.947 65.565,289.089 64.300 C 287.231 63.035,285.515 62.000,285.275 62.000 C 285.036 62.000,284.690 61.733,284.507 61.406 C 284.186 60.833,280.635 58.400,280.120 58.400 C 279.981 58.400,279.582 58.138,279.234 57.819 C 278.885 57.499,278.205 56.878,277.721 56.440 C 277.238 56.001,276.248 55.338,275.521 54.965 C 274.795 54.593,274.110 54.160,274.000 54.004 C 273.890 53.848,273.361 53.488,272.825 53.206 C 272.289 52.923,271.659 52.525,271.425 52.322 C 271.191 52.119,270.382 51.558,269.626 51.076 C 268.870 50.594,267.862 49.930,267.386 49.600 C 266.909 49.270,265.997 48.641,265.360 48.203 C 264.722 47.765,263.851 47.090,263.425 46.703 C 262.998 46.316,262.484 46.000,262.282 46.000 C 262.081 46.000,261.381 45.550,260.727 45.000 C 260.073 44.450,259.291 44.000,258.989 44.000 C 258.687 44.000,258.296 43.771,258.120 43.490 C 257.827 43.025,257.130 42.495,254.577 40.800 C 254.080 40.470,252.032 39.075,250.026 37.700 C 248.019 36.325,246.274 35.200,246.147 35.200 C 246.020 35.200,245.417 34.795,244.808 34.300 C 243.464 33.208,241.791 31.994,240.841 31.423 C 240.454 31.190,238.825 30.100,237.221 29.000 C 235.616 27.900,234.012 26.820,233.655 26.600 C 233.298 26.380,232.496 25.795,231.872 25.300 C 231.249 24.805,230.502 24.400,230.212 24.400 C 229.923 24.400,229.588 24.145,229.468 23.834 C 229.349 23.523,228.811 23.028,228.273 22.734 C 227.114 22.101,219.089 16.740,218.800 16.405 C 218.690 16.278,217.610 15.552,216.400 14.793 C 215.190 14.034,213.851 13.095,213.425 12.706 C 212.998 12.318,212.419 12.000,212.139 12.000 C 211.858 12.000,211.435 11.640,211.200 11.200 C 210.965 10.760,210.522 10.400,210.217 10.400 C 209.911 10.400,209.127 9.950,208.473 9.400 C 207.819 8.850,207.094 8.400,206.862 8.400 C 206.630 8.400,206.296 8.163,206.120 7.873 C 205.770 7.295,201.541 4.800,200.913 4.800 C 200.698 4.800,200.148 5.115,199.691 5.500 M204.192 8.180 C 204.847 8.631,205.680 9.180,206.043 9.400 C 206.406 9.620,207.940 10.644,209.451 11.675 C 210.963 12.706,213.280 14.279,214.600 15.170 C 215.920 16.061,217.180 16.936,217.400 17.115 C 217.620 17.294,218.385 17.785,219.100 18.206 C 219.815 18.628,220.400 19.092,220.400 19.238 C 220.400 19.384,220.940 19.727,221.600 20.000 C 222.260 20.273,222.800 20.643,222.800 20.822 C 222.800 21.000,223.159 21.260,223.598 21.399 C 224.036 21.538,224.621 21.872,224.898 22.141 C 225.174 22.409,226.750 23.528,228.400 24.627 C 231.023 26.374,232.622 27.473,238.200 31.365 C 238.860 31.825,239.690 32.382,240.045 32.601 C 241.876 33.733,245.873 36.435,246.382 36.885 C 246.702 37.168,247.872 37.984,248.982 38.697 C 251.823 40.522,252.309 40.858,253.900 42.100 C 254.676 42.705,255.554 43.200,255.852 43.200 C 256.149 43.200,256.618 43.560,256.893 44.000 C 257.168 44.440,257.505 44.800,257.642 44.800 C 257.779 44.800,260.031 46.241,262.646 48.002 C 265.261 49.764,268.840 52.162,270.600 53.332 C 272.360 54.501,274.322 55.805,274.960 56.229 C 276.073 56.970,276.462 57.232,279.040 58.991 C 279.678 59.426,280.290 59.880,280.400 60.000 C 280.510 60.120,281.135 60.560,281.790 60.977 C 282.444 61.394,283.164 61.889,283.390 62.076 C 283.768 62.390,287.603 64.991,289.764 66.400 C 293.455 68.807,295.871 70.432,296.283 70.785 C 296.549 71.013,296.920 71.200,297.108 71.200 C 297.296 71.200,297.968 71.740,298.600 72.400 C 299.232 73.060,299.949 73.600,300.193 73.600 C 300.438 73.600,300.989 73.869,301.419 74.199 C 301.848 74.528,302.891 75.331,303.735 75.983 C 304.579 76.635,305.614 77.278,306.035 77.411 C 306.456 77.545,306.800 77.800,306.800 77.978 C 306.800 78.157,307.340 78.527,308.000 78.800 C 308.660 79.073,309.200 79.422,309.200 79.574 C 309.200 79.727,309.785 80.161,310.500 80.538 C 311.215 80.916,313.060 82.123,314.600 83.222 C 316.140 84.321,318.480 85.931,319.800 86.801 C 321.120 87.671,322.560 88.669,323.000 89.018 C 323.440 89.368,327.130 91.888,331.200 94.619 C 335.270 97.350,340.037 100.578,341.794 101.792 C 343.550 103.007,345.206 104.000,345.474 104.000 C 345.741 104.000,346.104 104.229,346.280 104.510 C 346.456 104.790,347.050 105.328,347.600 105.705 C 348.150 106.082,349.701 107.158,351.047 108.096 C 352.394 109.033,355.184 110.912,357.247 112.272 C 359.311 113.632,361.938 115.480,363.085 116.379 C 364.232 117.278,365.492 118.128,365.885 118.268 C 366.278 118.407,366.916 118.793,367.303 119.125 C 367.689 119.457,368.346 119.925,368.761 120.164 C 370.033 120.898,374.164 123.721,374.800 124.292 C 375.492 124.914,382.336 129.502,383.929 130.412 C 384.791 130.905,388.603 133.585,390.600 135.103 C 390.820 135.270,392.469 136.382,394.264 137.573 C 396.832 139.278,397.578 139.991,397.764 140.920 C 398.127 142.734,398.032 396.931,397.668 397.504 C 397.416 397.900,393.288 397.986,378.374 397.904 L 359.400 397.800 359.200 279.532 L 359.000 161.264 358.000 160.196 C 357.163 159.301,354.712 157.549,348.216 153.200 C 345.942 151.678,344.985 151.000,344.800 150.782 C 344.690 150.652,343.430 149.838,342.000 148.973 C 340.570 148.108,339.220 147.208,339.000 146.972 C 338.633 146.580,337.879 146.046,335.364 144.400 C 330.191 141.014,325.170 137.586,322.400 135.547 C 321.190 134.656,319.840 133.763,319.400 133.562 C 318.960 133.361,317.790 132.577,316.800 131.819 C 315.810 131.061,314.190 129.954,313.200 129.358 C 312.210 128.762,310.363 127.493,309.096 126.537 C 307.828 125.582,306.696 124.800,306.579 124.800 C 306.346 124.800,305.142 123.981,301.151 121.107 C 299.694 120.058,298.370 119.200,298.209 119.200 C 298.047 119.200,297.350 118.747,296.658 118.194 C 294.846 116.745,294.815 116.723,292.400 115.200 C 291.190 114.437,289.182 113.045,287.938 112.107 C 286.693 111.168,285.549 110.400,285.395 110.400 C 285.153 110.400,284.617 110.008,282.162 108.037 C 281.922 107.843,281.112 107.374,280.362 106.993 C 279.613 106.612,278.280 105.719,277.400 105.009 C 276.520 104.299,275.260 103.419,274.600 103.053 C 273.940 102.688,272.500 101.764,271.400 101.001 C 270.300 100.238,268.810 99.205,268.090 98.707 C 267.369 98.208,266.396 97.485,265.928 97.100 C 265.460 96.715,264.950 96.400,264.794 96.400 C 264.638 96.400,263.876 95.905,263.100 95.300 C 261.639 94.160,261.028 93.726,259.000 92.390 C 258.340 91.956,256.787 90.925,255.550 90.100 C 254.312 89.275,252.152 87.843,250.750 86.918 C 249.347 85.993,247.300 84.586,246.200 83.791 C 244.163 82.320,239.717 79.360,238.334 78.556 C 237.914 78.311,237.172 77.751,236.685 77.310 C 236.198 76.869,234.990 76.021,234.000 75.426 C 233.010 74.831,231.480 73.812,230.600 73.162 C 228.423 71.553,224.835 69.200,224.560 69.200 C 224.436 69.200,223.584 68.601,222.667 67.868 C 221.750 67.135,220.434 66.190,219.743 65.768 C 219.052 65.346,217.181 64.100,215.587 63.000 C 213.993 61.900,212.289 60.730,211.800 60.400 C 211.311 60.070,209.604 58.900,208.006 57.800 C 200.682 52.759,201.593 52.940,197.453 55.701 C 195.722 56.855,193.742 58.148,193.053 58.573 C 192.364 58.998,190.921 60.033,189.848 60.873 C 188.774 61.713,187.720 62.400,187.505 62.400 C 187.291 62.400,186.550 62.853,185.858 63.406 C 184.196 64.735,184.003 64.876,182.610 65.771 C 181.956 66.192,181.236 66.690,181.010 66.878 C 180.531 67.278,174.436 71.347,171.080 73.507 C 169.804 74.328,167.748 75.765,166.510 76.700 C 165.273 77.635,164.140 78.400,163.992 78.400 C 163.845 78.400,163.201 78.851,162.562 79.402 C 161.923 79.954,161.085 80.506,160.700 80.629 C 160.315 80.753,160.000 81.022,160.000 81.227 C 160.000 81.432,159.820 81.600,159.601 81.600 C 159.142 81.600,155.067 84.436,154.867 84.895 C 154.793 85.063,154.566 85.200,154.361 85.200 C 154.156 85.200,151.966 86.586,149.494 88.280 C 147.022 89.974,143.830 92.132,142.400 93.076 C 140.970 94.019,139.552 95.001,139.250 95.258 C 138.947 95.515,137.237 96.678,135.450 97.843 C 131.705 100.284,129.924 101.517,128.742 102.488 C 128.282 102.867,127.566 103.284,127.152 103.415 C 126.739 103.546,126.400 103.826,126.400 104.037 C 126.400 104.247,125.995 104.588,125.500 104.793 C 125.005 104.998,123.160 106.167,121.400 107.390 C 117.403 110.167,110.515 114.867,109.662 115.400 C 108.750 115.969,101.665 120.796,93.075 126.702 C 90.917 128.186,88.740 129.670,88.239 130.000 C 87.738 130.330,86.553 131.140,85.607 131.800 C 84.660 132.460,83.596 133.181,83.243 133.403 C 82.889 133.624,81.520 134.539,80.200 135.435 C 78.880 136.331,76.276 138.093,74.413 139.350 C 72.550 140.606,70.930 141.765,70.813 141.925 C 70.696 142.085,70.150 142.441,69.600 142.715 C 69.050 142.989,67.880 143.756,67.000 144.419 C 66.120 145.082,65.040 145.803,64.600 146.021 C 64.160 146.239,63.080 146.958,62.200 147.620 C 61.320 148.281,59.520 149.537,58.200 150.410 C 56.880 151.283,55.460 152.223,55.044 152.499 C 54.629 152.775,53.819 153.368,53.244 153.817 C 52.158 154.667,50.367 155.911,49.239 156.600 C 48.878 156.820,48.019 157.405,47.330 157.900 C 46.641 158.395,45.904 158.800,45.693 158.800 C 45.482 158.800,44.834 159.485,44.254 160.322 L 43.200 161.843 43.200 260.057 L 43.200 358.272 44.219 358.736 C 45.590 359.361,279.260 359.410,280.426 358.786 C 281.187 358.379,281.200 357.101,281.200 282.312 L 281.200 206.253 279.277 204.426 C 278.219 203.422,276.644 202.242,275.777 201.804 C 274.910 201.366,274.096 200.866,273.970 200.693 C 273.843 200.520,272.763 199.763,271.570 199.011 C 269.229 197.536,267.039 196.041,266.276 195.399 C 265.843 195.035,263.149 193.212,261.557 192.206 C 261.204 191.983,260.143 191.260,259.200 190.600 C 258.257 189.940,257.193 189.220,256.835 189.000 C 256.174 188.594,253.732 186.881,253.000 186.309 C 251.633 185.242,247.238 182.311,246.400 181.908 C 245.850 181.643,244.680 180.866,243.800 180.181 C 242.920 179.496,241.626 178.590,240.925 178.168 C 239.465 177.289,232.571 172.573,231.868 171.972 C 231.611 171.752,230.388 170.903,229.150 170.086 C 222.974 166.006,219.361 163.591,219.000 163.299 C 218.476 162.876,215.590 160.902,212.649 158.956 C 206.705 155.021,203.418 152.755,203.218 152.453 C 202.381 151.188,200.693 151.598,197.332 153.884 C 195.460 155.158,193.449 156.456,192.864 156.770 C 192.279 157.083,190.952 157.983,189.917 158.770 C 187.586 160.539,183.993 162.993,179.800 165.678 C 178.040 166.805,175.610 168.463,174.400 169.363 C 173.190 170.264,171.885 171.180,171.501 171.400 C 171.116 171.620,169.766 172.506,168.501 173.368 C 167.235 174.231,164.940 175.782,163.400 176.816 C 156.275 181.597,155.380 182.230,155.080 182.699 C 154.904 182.975,154.561 183.200,154.318 183.200 C 154.075 183.200,153.231 183.695,152.444 184.300 C 150.818 185.550,150.362 185.841,148.054 187.108 C 147.144 187.608,146.400 188.150,146.400 188.313 C 146.400 188.477,146.062 188.788,145.649 189.005 C 144.490 189.615,139.874 192.667,139.192 193.274 C 138.857 193.572,137.745 194.308,136.720 194.908 C 135.695 195.509,134.619 196.228,134.328 196.505 C 134.038 196.783,133.265 197.354,132.610 197.773 C 131.956 198.193,131.236 198.692,131.010 198.883 C 130.454 199.353,125.862 202.392,124.059 203.483 C 120.908 205.391,121.200 199.260,121.200 263.421 C 121.200 306.606,121.085 320.824,120.734 321.041 C 120.166 321.392,83.376 321.356,82.806 321.004 C 82.534 320.836,82.400 298.347,82.400 252.824 L 82.400 184.895 83.773 183.847 C 84.529 183.271,85.259 182.800,85.396 182.800 C 85.534 182.800,86.851 181.952,88.323 180.916 C 90.782 179.185,97.122 174.870,101.000 172.288 C 103.850 170.390,105.237 169.410,105.795 168.900 C 106.096 168.625,106.437 168.400,106.552 168.400 C 106.799 168.400,114.997 162.868,119.000 160.000 C 120.540 158.896,122.177 157.830,122.638 157.630 C 123.099 157.430,123.729 157.023,124.038 156.724 C 124.347 156.425,126.220 155.117,128.200 153.816 C 130.180 152.515,131.981 151.241,132.202 150.984 C 132.422 150.727,133.007 150.388,133.502 150.231 C 133.996 150.074,134.400 149.783,134.400 149.583 C 134.400 149.384,134.968 148.927,135.662 148.568 C 136.357 148.209,137.122 147.746,137.362 147.540 C 137.603 147.334,138.790 146.545,140.000 145.786 C 142.704 144.091,143.303 143.687,145.145 142.321 C 145.945 141.728,147.050 140.910,147.600 140.503 C 148.150 140.096,149.590 139.147,150.800 138.395 C 152.010 137.642,153.090 136.910,153.200 136.769 C 153.310 136.627,153.985 136.212,154.700 135.846 C 155.415 135.479,156.000 135.025,156.000 134.836 C 156.000 134.648,156.315 134.383,156.700 134.248 C 157.436 133.990,159.759 132.442,160.831 131.496 C 161.177 131.189,161.717 130.815,162.031 130.663 C 162.344 130.511,163.343 129.895,164.252 129.294 C 165.160 128.692,167.050 127.442,168.452 126.515 C 169.853 125.588,171.184 124.674,171.409 124.484 C 171.634 124.294,172.804 123.480,174.009 122.675 C 175.214 121.869,176.485 120.938,176.834 120.605 C 177.182 120.272,177.637 120.000,177.845 120.000 C 178.052 120.000,179.477 119.102,181.011 118.004 C 184.238 115.695,184.632 115.420,186.054 114.490 C 186.633 114.110,188.343 112.945,189.854 111.901 C 191.364 110.856,194.471 108.750,196.759 107.221 L 200.918 104.440 202.159 105.078 C 202.841 105.429,204.390 106.380,205.600 107.191 C 206.810 108.002,209.870 110.039,212.400 111.717 C 214.930 113.395,217.893 115.450,218.985 116.284 C 220.077 117.118,222.417 118.734,224.185 119.876 C 225.953 121.017,228.300 122.600,229.400 123.393 C 230.500 124.186,232.412 125.502,233.650 126.317 C 239.893 130.431,243.447 132.818,243.883 133.189 C 244.149 133.415,245.859 134.588,247.683 135.795 C 249.507 137.002,251.380 138.268,251.845 138.610 C 252.310 138.951,253.692 139.898,254.916 140.715 C 256.139 141.532,258.967 143.460,261.200 145.000 C 263.432 146.540,265.679 148.070,266.193 148.400 C 266.707 148.730,268.795 150.143,270.834 151.540 C 276.169 155.196,276.479 155.406,277.760 156.243 C 278.397 156.659,279.331 157.270,279.835 157.600 C 280.338 157.930,282.580 159.460,284.816 161.000 C 287.052 162.540,289.898 164.469,291.141 165.286 C 292.383 166.103,293.608 166.950,293.863 167.168 C 294.603 167.799,298.751 170.536,300.099 171.281 C 300.776 171.656,301.436 172.109,301.565 172.287 C 301.833 172.656,310.424 178.494,318.039 183.482 L 319.479 184.425 319.750 191.112 C 320.169 201.450,320.017 395.904,319.589 397.030 L 319.220 398.000 162.486 398.000 C 37.728 398.000,5.614 397.898,5.074 397.500 C 4.438 397.031,4.402 388.967,4.498 268.617 L 4.600 140.235 7.262 138.217 C 8.726 137.108,11.024 135.480,12.367 134.600 C 13.711 133.720,17.162 131.380,20.037 129.400 C 22.911 127.420,25.687 125.530,26.207 125.200 C 26.726 124.870,28.973 123.340,31.200 121.800 C 33.428 120.260,35.836 118.640,36.553 118.200 C 37.269 117.760,38.789 116.725,39.929 115.900 C 41.069 115.075,42.103 114.400,42.228 114.400 C 42.475 114.400,45.278 112.361,45.600 111.947 C 45.710 111.806,46.375 111.355,47.077 110.945 C 47.780 110.535,49.645 109.300,51.223 108.200 C 52.800 107.100,54.499 105.930,54.997 105.600 C 60.690 101.829,66.706 97.718,67.129 97.310 C 67.419 97.030,67.790 96.800,67.953 96.800 C 68.116 96.800,68.598 96.481,69.025 96.091 C 69.836 95.349,75.508 91.516,76.200 91.241 C 76.420 91.154,77.637 90.299,78.904 89.341 C 80.172 88.384,81.327 87.600,81.471 87.600 C 81.615 87.600,82.018 87.315,82.366 86.967 C 82.715 86.619,84.620 85.279,86.600 83.989 C 88.580 82.699,91.784 80.553,93.719 79.222 C 95.655 77.890,97.346 76.800,97.478 76.800 C 97.610 76.800,98.456 76.197,99.359 75.459 C 100.261 74.722,101.540 73.818,102.200 73.451 C 102.860 73.085,105.200 71.528,107.400 69.992 C 109.600 68.456,113.740 65.632,116.600 63.716 C 119.460 61.799,122.038 59.999,122.329 59.716 C 122.619 59.432,123.000 59.200,123.174 59.200 C 123.348 59.200,124.190 58.662,125.045 58.005 C 125.900 57.347,126.780 56.672,127.000 56.505 C 127.220 56.337,128.210 55.677,129.200 55.037 C 131.915 53.284,132.704 52.752,136.400 50.187 C 141.970 46.320,145.572 43.861,147.221 42.800 C 148.075 42.250,149.545 41.276,150.487 40.635 C 151.429 39.995,153.010 38.920,154.000 38.247 C 154.990 37.574,155.980 36.869,156.200 36.679 C 156.420 36.489,157.610 35.674,158.843 34.867 C 164.456 31.197,165.813 30.274,166.000 30.003 C 166.110 29.843,166.740 29.417,167.400 29.057 C 168.060 28.697,169.950 27.413,171.600 26.204 C 173.250 24.995,175.185 23.701,175.900 23.329 C 176.615 22.957,177.200 22.523,177.200 22.365 C 177.200 22.207,177.695 21.882,178.300 21.643 C 178.905 21.403,180.210 20.575,181.200 19.803 C 182.190 19.031,183.270 18.276,183.600 18.124 C 184.279 17.812,189.693 13.966,190.000 13.577 C 190.110 13.437,190.679 13.071,191.264 12.762 C 191.849 12.453,193.606 11.300,195.167 10.200 C 200.866 6.186,201.187 6.114,204.192 8.180 " stroke="none" fill="#f8d4a6" fill-rule="evenodd"></path></g></svg>